<svg width="189" height="172" viewBox="0 0 189 172" fill="none" xmlns="http://www.w3.org/2000/svg">
<g id="Artboard 1 3">
<g id="Background Complete">
<path id="Vector" d="M189 131.546H0V131.632H189V131.546Z" fill="#EBEBEB"/>
<path id="Vector_2" d="M170.062 137.081H157.543V137.167H170.062V137.081Z" fill="#EBEBEB"/>
<path id="Vector_3" d="M125.201 138.016H121.917V138.102H125.201V138.016Z" fill="#EBEBEB"/>
<path id="Vector_4" d="M157.165 133.888H149.911V133.974H157.165V133.888Z" fill="#EBEBEB"/>
<path id="Vector_5" d="M36.1559 134.466H19.8301V134.552H36.1559V134.466Z" fill="#EBEBEB"/>
<path id="Vector_6" d="M41.9167 134.466H39.5239V134.552H41.9167V134.466Z" fill="#EBEBEB"/>
<path id="Vector_7" d="M85.1068 135.918H49.6958V136.004H85.1068V135.918Z" fill="#EBEBEB"/>
<path id="Vector_8" d="M89.586 116.203H16.598C16.0262 116.202 15.4782 115.995 15.0742 115.627C14.6702 115.258 14.4434 114.759 14.4434 114.239V20.867C14.4483 20.3497 14.6774 19.855 15.0808 19.4904C15.4843 19.1259 16.0294 18.9209 16.598 18.92H89.586C90.1584 18.92 90.7074 19.1269 91.1122 19.4953C91.517 19.8637 91.7444 20.3633 91.7444 20.8842V114.239C91.7444 114.76 91.517 115.26 91.1122 115.628C90.7074 115.996 90.1584 116.203 89.586 116.203ZM16.598 18.9888C16.0512 18.9897 15.5273 19.188 15.141 19.5401C14.7548 19.8923 14.5379 20.3695 14.5379 20.867V114.239C14.5379 114.737 14.7548 115.214 15.141 115.566C15.5273 115.918 16.0512 116.116 16.598 116.117H89.586C90.133 116.116 90.6574 115.918 91.0443 115.566C91.4311 115.214 91.6489 114.737 91.6499 114.239V20.867C91.6489 20.3692 91.4311 19.892 91.0443 19.5399C90.6574 19.1879 90.133 18.9897 89.586 18.9888H16.598Z" fill="#EBEBEB"/>
<path id="Vector_9" d="M171.351 116.203H98.3595C97.7874 116.202 97.239 115.995 96.8345 115.627C96.4299 115.259 96.2022 114.76 96.2012 114.239V20.867C96.2071 20.3494 96.4371 19.8547 96.8411 19.4902C97.2451 19.1257 97.7907 18.9209 98.3595 18.92H171.351C171.919 18.9218 172.463 19.1272 172.866 19.4916C173.269 19.8561 173.497 20.3503 173.502 20.867V114.239C173.502 114.759 173.276 115.257 172.873 115.625C172.47 115.994 171.922 116.201 171.351 116.203ZM98.3595 18.9888C97.8125 18.9897 97.2881 19.1879 96.9013 19.5399C96.5144 19.892 96.2967 20.3692 96.2957 20.867V114.239C96.2967 114.737 96.5144 115.214 96.9013 115.566C97.2881 115.918 97.8125 116.116 98.3595 116.117H171.351C171.898 116.116 172.423 115.918 172.81 115.566C173.196 115.214 173.414 114.737 173.415 114.239V20.867C173.414 20.3692 173.196 19.892 172.81 19.5399C172.423 19.1879 171.898 18.9897 171.351 18.9888H98.3595Z" fill="#EBEBEB"/>
<path id="Vector_10" d="M85.084 39.2194L88.9887 38.7L85.084 38.1805L86.0479 36.7908L84.5208 37.668L83.95 34.1179L83.3792 37.668L81.8521 36.7908L82.8198 38.1805L78.915 38.7L82.8198 39.2194L81.8521 40.6092L83.3792 39.7285L83.95 43.2821L84.5208 39.7285L86.0479 40.6092L85.084 39.2194Z" fill="#F5F5F5"/>
<path id="Vector_11" d="M124.335 48.7035L128.236 48.1841L124.335 47.6646L125.299 46.2749L123.772 47.1521L123.201 43.5985L122.631 47.1521L121.104 46.2749L122.071 47.6646L118.167 48.1841L122.071 48.7035L121.104 50.0933L122.631 49.2126L123.201 52.7661L123.772 49.2126L125.299 50.0933L124.335 48.7035Z" fill="#F5F5F5"/>
<path id="Vector_12" d="M69.4386 64.1147L73.3434 63.5953L69.4386 63.0724L70.4063 61.6861L68.8792 62.5633L68.3084 59.0097L67.7376 62.5633L66.2105 61.6861L67.1782 63.0724L63.2734 63.5953L67.1782 64.1147L66.2105 65.5045L67.7376 64.6238L68.3084 68.1774L68.8792 64.6238L70.4063 65.5045L69.4386 64.1147Z" fill="#F5F5F5"/>
<path id="Vector_13" d="M36.4356 64.1147L40.3365 63.5953L36.4356 63.0724L37.3995 61.6861L35.8723 62.5633L35.3016 59.0097L34.7308 62.5633L33.2037 61.6861L34.1713 63.0724L30.2666 63.5953L34.1713 64.1147L33.2037 65.5045L34.7308 64.6238L35.3016 68.1774L35.8723 64.6238L37.3995 65.5045L36.4356 64.1147Z" fill="#F5F5F5"/>
<path id="Vector_14" d="M55.1314 85.2673L59.0361 84.7479L55.1314 84.225L56.099 82.8386L54.5719 83.7159L54.0011 80.1623L53.4266 83.7159L51.9032 82.8386L52.8671 84.225L48.9624 84.7479L52.8671 85.2673L51.9032 86.6571L53.4266 85.7764L54.0011 89.3299L54.5719 85.7764L56.099 86.6571L55.1314 85.2673Z" fill="#F5F5F5"/>
<path id="Vector_15" d="M131.831 73.8774L135.736 73.358L131.831 72.8386L132.799 71.4488L131.272 72.3294L130.701 68.7759L130.13 72.3294L128.603 71.4488L129.567 72.8386L125.666 73.358L129.567 73.8774L128.603 75.2672L130.13 74.39L130.701 77.9435L131.272 74.39L132.799 75.2672L131.831 73.8774Z" fill="#F5F5F5"/>
<path id="Vector_16" d="M159.373 105.364L163.274 104.841L159.373 104.321L160.336 102.935L158.809 103.812L158.239 100.259L157.668 103.812L156.141 102.935L157.108 104.321L153.204 104.841L157.108 105.364L156.141 106.75L157.668 105.873L158.239 109.426L158.809 105.873L160.336 106.75L159.373 105.364Z" fill="#F5F5F5"/>
<path id="Vector_17" d="M126.796 104.27L130.701 103.75L126.796 103.228L127.764 101.841L126.237 102.718L125.666 99.1649L125.092 102.718L123.568 101.841L124.532 103.228L120.627 103.75L124.532 104.27L123.568 105.66L125.092 104.779L125.666 108.333L126.237 104.779L127.764 105.66L126.796 104.27Z" fill="#F5F5F5"/>
<path id="Vector_18" d="M55.1314 111.673L59.0361 111.15L55.1314 110.63L56.099 109.241L54.5719 110.121L54.0011 106.568L53.4266 110.121L51.9032 109.241L52.8671 110.63L48.9624 111.15L52.8671 111.673L51.9032 113.059L53.4266 112.182L54.0011 115.735L54.5719 112.182L56.099 113.059L55.1314 111.673Z" fill="#F5F5F5"/>
<path id="Vector_19" d="M97.5581 95.5219L101.463 95.0025L97.5581 94.483L98.5258 93.0933L96.9987 93.9705L96.4279 90.4204L95.8571 93.9705L94.33 93.0933L95.2939 94.483L91.3892 95.0025L95.2939 95.5219L94.33 96.9117L95.8571 96.031L96.4279 99.5845L96.9987 96.031L98.5258 96.9117L97.5581 95.5219Z" fill="#F5F5F5"/>
<path id="Vector_20" d="M75.4072 133.785L79.312 133.266L75.4072 132.746L76.3711 131.356L74.844 132.234L74.2732 128.683L73.7025 132.234L72.1753 131.356L73.143 132.746L69.2383 133.266L73.143 133.785L72.1753 135.175L73.7025 134.294L74.2732 137.848L74.844 134.294L76.3711 135.175L75.4072 133.785Z" fill="#F5F5F5"/>
<path id="Vector_21" d="M118.843 131.466L122.748 130.947L118.843 130.428L119.807 129.038L118.284 129.918L117.709 126.365L117.139 129.918L115.611 129.038L116.579 130.428L112.674 130.947L116.579 131.466L115.611 132.856L117.139 131.976L117.709 135.529L118.284 131.976L119.807 132.856L118.843 131.466Z" fill="#F5F5F5"/>
<path id="Vector_22" d="M119.335 67.3243C117.014 64.1973 116.02 59.2919 113.892 57.3483C115.539 56.1973 117.288 55.171 119.119 54.2798C120.423 57.6957 121.198 62.9967 124.563 64.2558C122.915 65.4068 121.167 66.433 119.335 67.3243Z" fill="#EBEBEB"/>
<path id="Vector_23" d="M123.266 64.8406C122.941 64.6445 123.024 64.2592 123.421 64.0184C121.092 62.3156 120.257 58.3527 119.202 55.3874C119.117 55.4229 119.023 55.4412 118.929 55.4409C118.835 55.4407 118.741 55.422 118.656 55.3861C118.57 55.3502 118.494 55.298 118.432 55.2329C118.371 55.1678 118.325 55.0915 118.299 55.0091C117.194 55.5664 116.121 56.1761 115.086 56.8357C115.166 57.0092 115.172 57.2038 115.102 57.381C115.032 57.5582 114.891 57.7049 114.708 57.792C116.284 59.8182 117.244 63.5575 118.968 66.3507C119.162 66.2852 119.373 66.279 119.571 66.333C119.769 66.387 119.942 66.4983 120.064 66.65C121.166 66.0982 122.234 65.4943 123.266 64.8406ZM117.596 61.3696C117.252 60.5337 117.569 59.6255 118.273 59.3297C118.976 59.0339 119.785 59.5258 120.106 60.3823C120.427 61.2389 120.178 62.1264 119.478 62.4085C118.779 62.6906 117.936 62.2124 117.607 61.3696H117.596Z" fill="#E0E0E0"/>
<g id="Group">
<path id="Vector_24" d="M118.261 61.3008L118.072 61.373C118.053 61.318 118.03 61.2629 118.008 61.2045L118.193 61.1322C118.127 60.9542 118.107 60.7645 118.136 60.5784L118.34 60.6025C118.315 60.7554 118.327 60.9116 118.374 61.06L118.703 60.9293C118.662 60.685 118.628 60.4167 118.862 60.3273C119.032 60.2585 119.24 60.3548 119.384 60.6713L119.569 60.5956L119.637 60.7641L119.452 60.8364C119.504 60.9839 119.525 61.1393 119.512 61.2939L119.312 61.2733C119.32 61.1505 119.306 61.0273 119.27 60.9086L118.938 61.0393C118.979 61.2836 119.021 61.5553 118.79 61.6448C118.62 61.7067 118.412 61.6104 118.261 61.3008ZM118.907 60.8536L119.202 60.7366C119.127 60.599 119.044 60.5577 118.972 60.5887C118.9 60.6197 118.889 60.7229 118.907 60.8536ZM118.669 61.3833C118.752 61.3524 118.756 61.2457 118.734 61.1116L118.443 61.2286C118.518 61.3696 118.601 61.4109 118.669 61.3833Z" fill="#E0E0E0"/>
</g>
<path id="Vector_25" d="M66.5469 57.0627C63.2243 58.6933 58.1856 58.8962 56.0839 60.5199C55.0294 58.8931 54.1096 57.1971 53.332 55.4459C56.8815 54.7579 62.3058 54.8061 63.7951 51.9887C64.8525 53.6141 65.7724 55.3103 66.5469 57.0627Z" fill="#EBEBEB"/>
<path id="Vector_26" d="M64.3015 53.2202C64.0822 53.4851 63.6929 53.3578 63.4774 52.9691C61.5874 54.8026 57.5239 54.9987 54.4432 55.525C54.4766 55.6003 54.4914 55.6814 54.4866 55.7625C54.4817 55.8436 54.4573 55.9227 54.4151 55.9943C54.3729 56.0658 54.314 56.1281 54.2424 56.1766C54.1708 56.2251 54.0884 56.2587 54.001 56.275C54.4508 57.2519 54.9838 58.2805 55.6339 59.371C55.925 59.2368 56.3521 59.4466 56.5789 59.8388C58.7373 58.7208 62.5891 58.3837 65.5413 57.2382C65.4833 57.0665 65.4888 56.8823 65.5571 56.7139C65.6254 56.5454 65.7527 56.4021 65.9193 56.3059C65.4733 55.3324 64.9479 54.3073 64.3053 53.2099L64.3015 53.2202ZM60.4005 57.792C60.0025 57.8898 59.5791 57.8539 59.2078 57.691C58.8364 57.528 58.5419 57.2488 58.3782 56.9045C58.125 56.2165 58.6806 55.5938 59.5689 55.4218C60.4572 55.2498 61.3417 55.5973 61.5799 56.2578C61.818 56.9182 61.2737 57.5925 60.4005 57.792Z" fill="#E0E0E0"/>
<g id="Group_2">
<path id="Vector_27" d="M60.3703 57.1831C60.393 57.2381 60.4119 57.3001 60.4346 57.3586L60.2607 57.3929C60.238 57.3345 60.2191 57.276 60.2002 57.2175C60.0117 57.2522 59.8166 57.2428 59.6332 57.19C59.6332 57.1315 59.6597 57.073 59.671 57.0111C59.8217 57.0577 59.9824 57.0707 60.1397 57.0489C60.1019 56.9457 60.0641 56.8391 60.0301 56.7359C59.7769 56.7359 59.5047 56.7359 59.4253 56.5123C59.3724 56.3506 59.482 56.1683 59.8033 56.0961C59.7844 56.0376 59.7617 55.9791 59.7428 55.9172L59.9167 55.8828C59.9167 55.9413 59.9583 55.9998 59.9772 56.0582C60.1307 56.0305 60.2886 56.0305 60.4421 56.0582C60.4421 56.1167 60.4421 56.1752 60.4119 56.2337C60.2868 56.2144 60.159 56.2144 60.0339 56.2337C60.0679 56.3403 60.1057 56.4435 60.1435 56.5502C60.393 56.5502 60.6727 56.5501 60.7445 56.7634C60.8088 56.9182 60.6954 57.104 60.3703 57.1831ZM59.9621 56.5467C59.9318 56.4538 59.8978 56.3575 59.8676 56.2681C59.7202 56.3128 59.6748 56.3816 59.7013 56.4504C59.7277 56.5192 59.8298 56.5433 59.9621 56.5467ZM60.4875 56.8288C60.461 56.7497 60.3514 56.7359 60.2153 56.7325C60.2494 56.8253 60.2796 56.9182 60.3136 57.0111C60.4799 56.9629 60.5102 56.8941 60.4799 56.8288H60.4875Z" fill="#E0E0E0"/>
</g>
<path id="Vector_28" d="M99.5237 52.4875C96.7 50.1999 94.7647 45.9515 92.3682 44.7235C93.6859 43.2638 95.1226 41.8966 96.666 40.6333C98.59 43.4335 100.401 48.0878 103.818 48.3939C102.501 49.8545 101.066 51.2229 99.5237 52.4875Z" fill="#EBEBEB"/>
<path id="Vector_29" d="M102.718 49.247C102.374 49.1507 102.37 48.7757 102.699 48.4593C100.17 47.472 98.5636 44.0629 96.9646 41.624C96.8984 41.6789 96.8196 41.7197 96.734 41.7435C96.6483 41.7674 96.5579 41.7736 96.4693 41.7617C96.3807 41.7499 96.2961 41.7203 96.2216 41.675C96.1471 41.6298 96.0846 41.5701 96.0385 41.5001C95.1842 42.2225 94.3035 43.0275 93.3925 43.9632C93.6307 44.1661 93.5588 44.603 93.23 44.9298C95.12 46.3953 96.7907 49.5738 98.9869 51.7032C99.1443 51.5952 99.336 51.5368 99.5331 51.5368C99.7302 51.5368 99.922 51.5952 100.079 51.7032C100.93 50.9877 101.807 50.1861 102.725 49.2608L102.718 49.247ZM96.6698 47.472C96.4321 47.1651 96.3242 46.7904 96.3659 46.4169C96.4076 46.0434 96.596 45.6961 96.8966 45.4389C97.5014 44.9952 98.3481 45.2497 98.8357 45.9515C99.3233 46.6533 99.2591 47.527 98.6581 47.957C98.057 48.387 97.1725 48.16 96.6811 47.472H96.6698Z" fill="#E0E0E0"/>
<g id="Group_3">
<path id="Vector_30" d="M97.2856 47.245L97.1231 47.3585L97.0286 47.2243L97.1873 47.1108C97.0881 46.9618 97.031 46.7928 97.021 46.6189L97.2176 46.5879C97.223 46.7325 97.2657 46.8739 97.3423 47.0007L97.6296 46.8012C97.5389 46.5879 97.4519 46.3506 97.6522 46.2095C97.8526 46.0685 98.0303 46.1442 98.2117 46.3918L98.3742 46.2783L98.4687 46.4159L98.31 46.526C98.3881 46.6502 98.4395 46.7868 98.4612 46.9285L98.2684 46.9594C98.2496 46.8469 98.2113 46.7378 98.155 46.6361L97.8677 46.8391C97.9584 47.0523 98.0529 47.2897 97.8677 47.4273C97.6825 47.5649 97.4897 47.4926 97.2856 47.245ZM97.7997 46.6774L98.0567 46.5019C97.9584 46.3918 97.8715 46.3781 97.8072 46.4194C97.743 46.4607 97.7581 46.5639 97.7997 46.6774ZM97.6901 47.2209C97.7581 47.1727 97.7392 47.0764 97.6901 46.9594L97.4368 47.1349C97.5426 47.2484 97.6258 47.2656 97.6901 47.2209Z" fill="#E0E0E0"/>
</g>
<path id="Vector_31" d="M108.384 88.3633C107.095 85.1332 107.609 80.5683 106.154 78.4389C108.076 77.7302 110.053 77.153 112.07 76.7121C112.3 80.0076 111.453 84.8855 114.3 86.6399C112.378 87.3487 110.401 87.9248 108.384 88.3633Z" fill="#EBEBEB"/>
<path id="Vector_32" d="M112.886 86.9013C112.633 86.6639 112.829 86.3371 113.264 86.2133C111.548 84.2456 111.93 80.5545 111.809 77.7062C111.722 77.7261 111.631 77.7282 111.542 77.7123C111.454 77.6964 111.371 77.6629 111.299 77.6142C111.226 77.5655 111.167 77.5029 111.124 77.4307C111.082 77.3586 111.057 77.2788 111.053 77.197C109.919 77.4619 108.728 77.7887 107.435 78.2118C107.537 78.4939 107.246 78.8482 106.785 78.9927C107.685 81.1014 107.488 84.6206 108.297 87.4414C108.492 87.4165 108.69 87.4492 108.863 87.5347C109.036 87.6201 109.174 87.7538 109.257 87.9161C110.391 87.6546 111.574 87.3313 112.863 86.9116L112.886 86.9013ZM108.509 82.7251C108.459 82.3527 108.559 81.9763 108.79 81.6657C109.022 81.3552 109.369 81.1315 109.768 81.0361C110.524 80.9054 111.143 81.497 111.204 82.3226C111.264 83.1482 110.754 83.8913 110.002 84.0117C109.25 84.1321 108.577 83.5404 108.509 82.7251Z" fill="#E0E0E0"/>
<g id="Group_4">
<path id="Vector_33" d="M109.155 82.7871L108.955 82.818C108.955 82.763 108.955 82.7079 108.955 82.6563L109.155 82.6254C109.147 82.4509 109.185 82.2772 109.268 82.1197L109.457 82.1816C109.385 82.3093 109.348 82.4508 109.348 82.5944L109.707 82.5428C109.737 82.3158 109.786 82.0715 110.036 82.0337C110.217 82.0062 110.383 82.13 110.433 82.4362L110.633 82.4087V82.5703L110.436 82.5979C110.442 82.7409 110.416 82.8835 110.361 83.0175L110.172 82.9625C110.218 82.8525 110.242 82.7361 110.244 82.6185L109.884 82.6735C109.85 82.9006 109.813 83.1483 109.563 83.1861C109.378 83.2171 109.208 83.0932 109.155 82.7871ZM109.911 82.5119L110.228 82.4637C110.198 82.3261 110.13 82.2779 110.051 82.2883C109.971 82.2986 109.93 82.3915 109.907 82.5119H109.911ZM109.533 82.9419C109.62 82.9419 109.654 82.8352 109.677 82.7114L109.359 82.7561C109.382 82.904 109.446 82.9522 109.522 82.9419H109.533Z" fill="#E0E0E0"/>
</g>
<path id="Vector_34" d="M158.594 75.2019C155.77 72.9143 153.835 68.6659 151.438 67.4378C152.757 65.979 154.193 64.6118 155.736 63.3476C157.664 66.1478 159.474 70.8021 162.891 71.1083C161.574 72.5689 160.137 73.9373 158.594 75.2019Z" fill="#EBEBEB"/>
<path id="Vector_35" d="M161.784 71.9648C161.437 71.865 161.437 71.4901 161.765 71.1736C159.229 70.176 157.626 66.7773 156.035 64.328C155.969 64.3829 155.89 64.4237 155.804 64.4476C155.719 64.4714 155.628 64.4776 155.54 64.4657C155.451 64.4539 155.366 64.4243 155.292 64.379C155.217 64.3338 155.155 64.2741 155.109 64.2042C154.255 64.9266 153.374 65.7315 152.463 66.6672C152.701 66.8702 152.629 67.307 152.3 67.6338C154.19 69.0993 155.861 72.2778 158.057 74.4072C158.215 74.2997 158.406 74.2417 158.603 74.2417C158.8 74.2417 158.992 74.2997 159.15 74.4072C160 73.6917 160.877 72.8902 161.796 71.9648H161.784ZM155.736 70.176C155.498 69.8699 155.39 69.4957 155.432 69.1225C155.473 68.7494 155.662 68.4026 155.963 68.1464C156.564 67.6992 157.415 67.9538 157.898 68.6555C158.382 69.3573 158.326 70.231 157.725 70.661C157.124 71.091 156.243 70.864 155.736 70.176Z" fill="#E0E0E0"/>
<g id="Group_5">
<path id="Vector_36" d="M156.356 69.9593L156.193 70.0728L156.099 69.9387L156.258 69.8251C156.158 69.6762 156.101 69.5072 156.091 69.3332L156.288 69.3023C156.293 69.4469 156.336 69.5883 156.413 69.7151L156.696 69.5155C156.609 69.3023 156.522 69.0649 156.723 68.9239C156.866 68.8207 157.082 68.8585 157.282 69.1062L157.445 68.9927L157.539 69.1303L157.38 69.2403C157.458 69.3645 157.51 69.5011 157.531 69.6428L157.339 69.6738C157.32 69.5612 157.282 69.4521 157.225 69.3504L156.938 69.5534C157.029 69.7667 157.123 70.004 156.938 70.1416C156.753 70.2792 156.56 70.207 156.356 69.9593ZM156.87 69.3917L157.127 69.2163C157.029 69.1062 156.942 69.0924 156.878 69.1371C156.813 69.1819 156.828 69.2782 156.87 69.3917ZM156.757 69.9352C156.828 69.8871 156.81 69.7907 156.757 69.6738L156.503 69.8527C156.613 69.9627 156.696 69.9799 156.757 69.9352Z" fill="#E0E0E0"/>
</g>
<path id="Vector_37" d="M91.6348 68.4181C89.0984 71.3937 86.7812 74.5792 85.7569 77.9813C84.0483 77.3381 82.2944 76.6913 80.582 75.938C81.9239 72.3982 84.2411 69.2919 86.4599 66.3748C88.1685 67.0181 89.9224 67.6648 91.6348 68.4181Z" fill="#EBEBEB"/>
<path id="Vector_38" d="M87.2538 66.9665C87.1266 67.1222 86.9473 67.2362 86.7428 67.2914C86.5384 67.3466 86.3198 67.34 86.1198 67.2726C84.2903 69.7047 82.4608 72.271 81.2285 75.1158C81.4147 75.2067 81.5592 75.3549 81.6361 75.534C81.7129 75.713 81.7172 75.9112 81.6481 76.0928C82.7178 76.54 83.7989 76.9562 84.8687 77.3622C84.8954 77.2775 84.9418 77.199 85.0048 77.132C85.0677 77.0651 85.1457 77.0112 85.2335 76.974C85.3213 76.9368 85.4168 76.9172 85.5136 76.9165C85.6105 76.9159 85.7063 76.9341 85.7948 76.97C86.8343 74.2008 88.66 71.5864 90.6861 69.113C90.5979 69.0775 90.5201 69.0236 90.459 68.9557C90.3979 68.8879 90.3551 68.8079 90.3341 68.7222C90.3132 68.6365 90.3146 68.5476 90.3383 68.4625C90.362 68.3775 90.4073 68.2986 90.4706 68.2324C89.3971 67.7852 88.3198 67.369 87.2501 66.963L87.2538 66.9665ZM86.9401 72.584C86.7386 72.9226 86.4073 73.182 86.0093 73.3127C85.6113 73.4433 85.1743 73.4362 84.7817 73.2926C84.5988 73.2128 84.4365 73.0987 84.3054 72.9579C84.1743 72.817 84.0774 72.6525 84.0211 72.4752C83.9647 72.2979 83.9501 72.1117 83.9782 71.9289C84.0064 71.7461 84.0767 71.5708 84.1845 71.4144C84.4006 71.076 84.7437 70.8201 85.1507 70.6937C85.5577 70.5672 86.0012 70.5789 86.3996 70.7264C86.582 70.804 86.7435 70.9171 86.8726 71.0577C87.0018 71.1983 87.0954 71.3631 87.147 71.5402C87.1985 71.7174 87.2067 71.9027 87.171 72.083C87.1352 72.2634 87.0564 72.4344 86.9401 72.584Z" fill="#E0E0E0"/>
<g id="Group_6">
<path id="Vector_39" d="M86.3617 72.1849L86.5659 72.2709L86.4789 72.4085L86.2748 72.3225C86.176 72.4692 86.0348 72.5882 85.8666 72.6665L85.7267 72.5117C85.8682 72.4478 85.9892 72.3518 86.0782 72.2331L85.7002 72.0783C85.5339 72.2434 85.3411 72.4223 85.0879 72.3122C84.9027 72.2331 84.8157 72.037 84.9556 71.7618L84.7515 71.6758L84.8384 71.5382L85.0425 71.6242C85.1267 71.5044 85.2407 71.4042 85.3752 71.3318L85.515 71.4763C85.4079 71.5366 85.3143 71.6148 85.2391 71.7068L85.6171 71.8616C85.7872 71.6965 85.9951 71.5176 86.2408 71.6277C86.426 71.7137 86.5054 71.896 86.3617 72.1849ZM85.4923 71.9923L85.1673 71.8547C85.1106 71.982 85.1446 72.0611 85.224 72.0955C85.3033 72.1299 85.3978 72.0783 85.4923 71.9923ZM86.116 71.8581C86.0253 71.8203 85.9346 71.8753 85.8401 71.9648L86.1652 72.0989C86.2219 71.9682 86.1841 71.896 86.116 71.8581Z" fill="#E0E0E0"/>
</g>
<path id="Vector_40" d="M156.087 86.0585C153.547 89.0341 151.234 92.2195 150.209 95.6217C148.501 94.9784 146.747 94.3317 145.035 93.5783C146.377 90.0386 148.694 86.9322 150.909 84.0151C152.621 84.6584 154.375 85.312 156.087 86.0585Z" fill="#EBEBEB"/>
<path id="Vector_41" d="M151.706 84.6034C151.58 84.7601 151.401 84.8751 151.196 84.931C150.992 84.9869 150.773 84.9805 150.572 84.913C148.743 87.3416 146.913 89.9113 145.681 92.7562C145.868 92.8453 146.014 92.9926 146.092 93.1713C146.169 93.35 146.174 93.5482 146.105 93.7297C147.174 94.1803 148.255 94.5931 149.325 95.0025C149.351 94.9175 149.397 94.8386 149.46 94.7713C149.523 94.704 149.601 94.6499 149.689 94.6127C149.777 94.5754 149.873 94.5559 149.97 94.5555C150.067 94.5551 150.163 94.5738 150.251 94.6103C151.291 91.8583 153.116 89.2267 155.142 86.7534C155.054 86.7178 154.977 86.6639 154.915 86.5961C154.854 86.5282 154.812 86.4482 154.791 86.3625C154.77 86.2769 154.771 86.1879 154.795 86.1028C154.818 86.0178 154.864 85.9389 154.927 85.8727C153.857 85.429 152.78 85.0127 151.71 84.6068L151.706 84.6034ZM151.374 90.2312C151.172 90.5698 150.841 90.8292 150.443 90.9598C150.045 91.0905 149.608 91.0834 149.215 90.9398C149.032 90.8604 148.869 90.7466 148.738 90.6057C148.607 90.4649 148.509 90.3003 148.453 90.1229C148.397 89.9454 148.382 89.759 148.411 89.5761C148.439 89.3932 148.51 89.2178 148.618 89.0616C148.839 88.7312 149.183 88.4836 149.587 88.3637C149.991 88.2439 150.429 88.2596 150.822 88.408C151 88.4854 151.157 88.5966 151.284 88.7341C151.41 88.8716 151.502 89.0322 151.555 89.205C151.607 89.3779 151.618 89.559 151.587 89.736C151.556 89.9131 151.483 90.0819 151.374 90.2312Z" fill="#E0E0E0"/>
<g id="Group_7">
<path id="Vector_42" d="M150.822 89.8253L151.026 89.9113C150.996 89.956 150.966 90.0008 150.939 90.0489L150.735 89.9629C150.633 90.1083 150.491 90.2268 150.323 90.3069L150.187 90.1521C150.328 90.0871 150.449 89.9913 150.539 89.8735L150.161 89.7187C149.994 89.8838 149.802 90.0627 149.548 89.9526C149.363 89.8735 149.276 89.6774 149.416 89.4022L149.212 89.3162C149.238 89.268 149.269 89.2233 149.299 89.1786L149.503 89.2646C149.587 89.1438 149.701 89.0425 149.836 88.9688L149.972 89.1167C149.866 89.1779 149.774 89.256 149.7 89.3472L150.078 89.502C150.248 89.3368 150.456 89.158 150.701 89.268C150.879 89.354 150.954 89.5467 150.822 89.8253ZM149.953 89.6327L149.628 89.4951C149.571 89.6224 149.605 89.7015 149.684 89.7359C149.764 89.7703 149.851 89.7187 149.945 89.6327H149.953ZM150.577 89.4985C150.486 89.4607 150.395 89.5157 150.301 89.6017L150.622 89.7393C150.675 89.6086 150.648 89.5295 150.569 89.4985H150.577Z" fill="#E0E0E0"/>
</g>
<path id="Vector_43" d="M139.792 45.979C139.592 42.226 135.902 39.6425 135.702 35.8895L140.994 34.1179C141.198 37.8709 144.884 40.4544 145.088 44.204L139.792 45.979Z" fill="#EBEBEB"/>
<path id="Vector_44" d="M144.052 44.2556C144.03 44.0596 144.077 43.8623 144.187 43.6922C144.296 43.5221 144.462 43.3882 144.661 43.3096C144.022 40.3891 141.467 38.1152 140.835 35.1947C140.748 35.2298 140.652 35.2451 140.556 35.2392C140.46 35.2332 140.368 35.2063 140.286 35.1607C140.204 35.115 140.136 35.052 140.087 34.977C140.038 34.9021 140.009 34.8174 140.004 34.7303L136.715 35.8345C136.737 36.0301 136.691 36.2272 136.582 36.3972C136.473 36.5672 136.308 36.7014 136.11 36.7805C136.742 39.7011 139.297 41.9783 139.936 44.8989C140.023 44.8637 140.118 44.8483 140.214 44.854C140.309 44.8597 140.401 44.8864 140.483 44.9317C140.564 44.9771 140.632 45.0397 140.681 45.1143C140.73 45.1889 140.758 45.2731 140.764 45.3599L144.048 44.2556H144.052ZM138.968 40.4716C138.865 40.3176 138.802 40.1444 138.784 39.9651C138.765 39.7857 138.791 39.6048 138.859 39.4358C138.928 39.2669 139.038 39.1142 139.18 38.9892C139.323 38.8641 139.494 38.77 139.682 38.7138C140.094 38.5911 140.539 38.6007 140.944 38.741C141.348 38.8813 141.688 39.1437 141.905 39.4843C142.009 39.638 142.072 39.811 142.092 39.9904C142.111 40.1697 142.086 40.3507 142.017 40.5199C141.949 40.689 141.84 40.8418 141.697 40.9669C141.554 41.092 141.383 41.1861 141.194 41.2422C140.781 41.3645 140.334 41.3533 139.928 41.2104C139.522 41.0676 139.183 40.8018 138.968 40.4579V40.4716Z" fill="#E0E0E0"/>
<g id="Group_8">
<path id="Vector_45" d="M139.739 40.3615L139.52 40.4338L139.437 40.2996L139.652 40.2239C139.566 40.0838 139.534 39.9215 139.561 39.763H139.803C139.778 39.8936 139.798 40.0281 139.86 40.1482L140.238 40.0175C140.177 39.8146 140.128 39.591 140.397 39.5015C140.518 39.4702 140.647 39.4777 140.762 39.5228C140.878 39.5679 140.973 39.6479 141.032 39.7492L141.251 39.677L141.338 39.8146L141.119 39.8868C141.185 40.0034 141.216 40.134 141.209 40.2652H140.994C141 40.1603 140.979 40.0556 140.933 39.959L140.555 40.0932C140.616 40.2962 140.673 40.5198 140.4 40.6092C140.276 40.6476 140.14 40.6437 140.019 40.5981C139.897 40.5526 139.798 40.4686 139.739 40.3615ZM140.495 39.9453L140.839 39.8283C140.744 39.7182 140.646 39.6907 140.559 39.7182C140.472 39.7458 140.461 39.8386 140.487 39.9453H140.495ZM140.234 40.4062C140.329 40.3753 140.329 40.2858 140.302 40.1758L139.958 40.2893C140.045 40.4062 140.143 40.4338 140.238 40.4062H140.234Z" fill="#E0E0E0"/>
</g>
<path id="Vector_46" d="M32.6704 90.4307C32.4663 86.688 28.7808 84.0942 28.5767 80.3412L33.8687 78.5696C34.0728 82.3226 37.7583 84.9026 37.9624 88.6557L32.6704 90.4307Z" fill="#EBEBEB"/>
<path id="Vector_47" d="M36.9304 88.7073C36.9082 88.5117 36.9548 88.3146 37.0635 88.1446C37.1721 87.9746 37.3373 87.8404 37.5352 87.7613C36.9002 84.8407 34.3449 82.5669 33.7099 79.6429C33.6224 79.6788 33.5267 79.6948 33.4309 79.6895C33.3352 79.6841 33.2423 79.6576 33.1604 79.6122C33.0785 79.5667 33.0099 79.5038 32.9608 79.4289C32.9116 79.3539 32.8833 79.2691 32.8783 79.1819L29.5897 80.2862C29.6119 80.4818 29.5653 80.6789 29.4566 80.8489C29.3479 81.0189 29.1828 81.1531 28.9849 81.2322C29.6199 84.1527 32.1752 86.43 32.8102 89.3506C32.8977 89.3146 32.9934 89.2987 33.0891 89.304C33.1849 89.3094 33.2778 89.3359 33.3597 89.3813C33.4416 89.4268 33.5102 89.4897 33.5593 89.5646C33.6085 89.6396 33.6368 89.7244 33.6418 89.8115L36.9304 88.7073ZM31.8425 84.9233C31.7399 84.7692 31.6769 84.5961 31.658 84.4167C31.6392 84.2374 31.6651 84.0565 31.7337 83.8875C31.8024 83.7186 31.9121 83.5659 32.0546 83.4408C32.1972 83.3158 32.3689 83.2217 32.557 83.1655C32.9679 83.0437 33.4122 83.0538 33.816 83.194C34.2198 83.3342 34.5585 83.5961 34.7758 83.936C34.8792 84.0897 34.9431 84.2627 34.9625 84.4421C34.982 84.6214 34.9566 84.8024 34.8882 84.9715C34.8198 85.1407 34.7103 85.2935 34.5677 85.4186C34.4252 85.5437 34.2534 85.6378 34.0652 85.6939C33.6521 85.8153 33.2056 85.8037 32.8009 85.6608C32.3961 85.518 32.0577 85.2527 31.8425 84.9095V84.9233Z" fill="#E0E0E0"/>
<g id="Group_9">
<path id="Vector_48" d="M32.6139 84.8132L32.3947 84.8855L32.3115 84.7479L32.527 84.6756C32.444 84.5346 32.4135 84.3728 32.44 84.2147H32.682C32.6552 84.3453 32.6751 84.4803 32.7387 84.5999L33.1167 84.4692C33.0524 84.2663 33.0033 84.0427 33.2754 83.9532C33.3964 83.9212 33.5259 83.9285 33.6417 83.9736C33.7575 84.0188 33.8525 84.0991 33.9105 84.2009L34.1297 84.1287L34.2129 84.2663L33.9974 84.3385C34.0655 84.4545 34.0957 84.5858 34.0843 84.7169H33.8462C33.852 84.612 33.8313 84.5073 33.7857 84.4108L33.4077 84.5449C33.472 84.7444 33.5249 84.9715 33.2565 85.0609C33.1345 85.094 33.0036 85.0874 32.8863 85.0422C32.769 84.997 32.6727 84.916 32.6139 84.8132ZM33.3699 84.397L33.7177 84.28C33.6903 84.2359 33.6477 84.2011 33.5965 84.1812C33.5452 84.1613 33.4882 84.1574 33.4342 84.1699C33.3359 84.2009 33.3359 84.28 33.3624 84.397H33.3699ZM33.1091 84.8579C33.2074 84.827 33.2074 84.7375 33.1771 84.624L32.8332 84.741C32.9239 84.8579 33.0184 84.8855 33.1015 84.8579H33.1091Z" fill="#E0E0E0"/>
</g>
<path id="Vector_49" d="M46.1727 45.9034C44.7326 49.5223 39.7467 49.45 38.1062 52.5185C36.5715 51.2904 35.0822 50.1105 33.5967 49.0579C35.0331 45.439 40.0227 45.5112 41.6632 42.4427C43.1941 43.688 44.7061 44.8404 46.1727 45.9034Z" fill="#EBEBEB"/>
<path id="Vector_50" d="M42.3967 43.3612C42.2039 43.6846 41.7276 43.6811 41.3799 43.3991C39.5881 45.525 35.9518 45.8759 34.3037 48.3595C34.4646 48.4893 34.5753 48.6627 34.6195 48.8541C34.6638 49.0455 34.6392 49.2448 34.5494 49.4225C35.4743 50.1105 36.4142 50.8375 37.3693 51.6034C37.5621 51.2835 38.0383 51.2835 38.3823 51.5656C40.174 49.4397 43.8104 49.0888 45.4623 46.6051C45.3012 46.4763 45.1903 46.3035 45.146 46.1125C45.1017 45.9216 45.1265 45.7227 45.2166 45.5456C44.2867 44.8576 43.3455 44.1306 42.3929 43.3647L42.3967 43.3612ZM41.0548 48.5212C40.329 48.8652 39.1648 48.6726 38.4655 48.0843C37.7662 47.4961 37.7095 46.7083 38.4655 46.3643C39.2215 46.0203 40.3555 46.213 41.0586 46.8046C41.7616 47.3963 41.7768 48.1807 41.0548 48.5281V48.5212Z" fill="#E0E0E0"/>
<g id="Group_10">
<path id="Vector_51" d="M40.582 47.9536C40.65 48.0086 40.7143 48.0602 40.7748 48.1153L40.6349 48.1841L40.4421 48.0258C40.2652 48.0966 40.0713 48.125 39.8789 48.1084L39.7806 47.9261C39.9423 47.9431 40.106 47.923 40.2569 47.8676L39.9129 47.5821C39.7889 47.6285 39.6534 47.6441 39.5206 47.6271C39.3877 47.6102 39.2622 47.5614 39.1569 47.4858C39.1106 47.4585 39.0733 47.4204 39.0488 47.3754C39.0243 47.3304 39.0137 47.2803 39.0179 47.2303C39.0222 47.1802 39.0412 47.1322 39.073 47.0912C39.1048 47.0502 39.1481 47.0177 39.1985 46.9973L39.002 46.8356L39.1418 46.7668L39.3346 46.925C39.4785 46.8675 39.6349 46.8405 39.792 46.8459L39.894 47.0248C39.7655 47.0228 39.6375 47.0414 39.516 47.0798L39.8676 47.3723C39.9907 47.3227 40.1265 47.3052 40.26 47.3216C40.3934 47.338 40.5193 47.3877 40.6236 47.4651C40.6688 47.4931 40.7051 47.5314 40.7288 47.5762C40.7526 47.621 40.7628 47.6708 40.7586 47.7204C40.7544 47.77 40.7358 47.8177 40.7048 47.8586C40.6738 47.8996 40.6314 47.9324 40.582 47.9536ZM39.6899 47.4101L39.38 47.1521C39.3596 47.1635 39.3429 47.1794 39.3312 47.1984C39.3196 47.2174 39.3135 47.2387 39.3135 47.2604C39.3135 47.2822 39.3196 47.3035 39.3312 47.3225C39.3429 47.3415 39.3596 47.3574 39.38 47.3688C39.4254 47.3955 39.4765 47.4129 39.53 47.42C39.5835 47.4272 39.638 47.4238 39.6899 47.4101ZM40.4081 47.5855C40.3599 47.5558 40.3048 47.5366 40.2471 47.5294C40.1894 47.5223 40.1307 47.5273 40.0755 47.5443L40.3817 47.7988C40.5026 47.7231 40.4988 47.6474 40.4232 47.5855H40.4081Z" fill="#E0E0E0"/>
</g>
<path id="Vector_52" d="M50.0473 97.0837C48.6109 100.703 43.6213 100.63 41.9807 103.699C40.4687 102.471 38.9567 101.291 37.4712 100.238C38.9114 96.6193 43.8972 96.6916 45.5377 93.6231C47.0724 94.8512 48.5806 96.0208 50.0473 97.0837Z" fill="#EBEBEB"/>
<path id="Vector_53" d="M46.2712 94.5415C46.0784 94.8614 45.6059 94.8615 45.2582 94.5794C43.4664 96.7053 39.8301 97.0562 38.1782 99.5398C38.3402 99.6688 38.452 99.842 38.497 100.034C38.542 100.225 38.5177 100.425 38.4277 100.603C39.3538 101.291 40.295 102.027 41.2476 102.784C41.4366 102.464 41.9129 102.464 42.2606 102.746C44.0486 100.62 47.6887 100.266 49.3368 97.7855C49.1757 97.6566 49.0648 97.4838 49.0205 97.2928C48.9762 97.1019 49.001 96.903 49.0911 96.7259C48.1662 96.0379 47.2263 95.3109 46.2712 94.545V94.5415ZM44.9293 99.7015C44.2073 100.046 43.0393 99.8529 42.3438 99.2647C41.6483 98.6764 41.5878 97.8887 42.3438 97.5447C43.0998 97.2007 44.2338 97.3933 44.9331 97.985C45.6324 98.5767 45.6513 99.361 44.9293 99.7084V99.7015Z" fill="#E0E0E0"/>
<g id="Group_11">
<path id="Vector_54" d="M44.4604 99.1339L44.6532 99.2956C44.604 99.3163 44.5587 99.3403 44.5133 99.3644L44.3206 99.2027C44.1428 99.2752 43.9475 99.3049 43.7536 99.2887C43.7233 99.2268 43.6893 99.1683 43.6591 99.1064C43.8207 99.1231 43.9843 99.103 44.1353 99.0479L43.7876 98.7624C43.6632 98.8084 43.5276 98.8234 43.3947 98.8058C43.2618 98.7883 43.1365 98.7389 43.0316 98.6627C42.9862 98.6352 42.9497 98.5972 42.9259 98.5526C42.9021 98.508 42.8917 98.4585 42.896 98.409C42.9002 98.3596 42.9189 98.3121 42.95 98.2714C42.9812 98.2307 43.0237 98.1984 43.0731 98.1776L42.8804 98.0159L43.0202 97.9471L43.213 98.1054C43.3559 98.0484 43.5106 98.0202 43.6666 98.0228C43.7006 98.0847 43.7384 98.1432 43.7725 98.2017C43.6436 98.2004 43.5156 98.2202 43.3945 98.2602L43.7422 98.5491C43.8663 98.5027 44.0017 98.4872 44.1345 98.5041C44.2674 98.521 44.3929 98.5698 44.4982 98.6455C44.5436 98.6731 44.5801 98.7112 44.6042 98.7558C44.6282 98.8005 44.6388 98.8501 44.635 98.8997C44.6311 98.9492 44.613 98.997 44.5823 99.0382C44.5517 99.0793 44.5096 99.1123 44.4604 99.1339ZM43.5797 98.587L43.2735 98.3324C43.1677 98.4081 43.179 98.4838 43.2735 98.5491C43.3187 98.5747 43.3694 98.5913 43.4221 98.5978C43.4749 98.6043 43.5286 98.6006 43.5797 98.587ZM44.2979 98.7658C44.2505 98.7345 44.1953 98.7144 44.1372 98.7072C44.0792 98.7 44.0201 98.706 43.9652 98.7246L44.2714 98.9791C44.3773 98.9035 44.3735 98.8278 44.2979 98.7658Z" fill="#E0E0E0"/>
</g>
</g>
<g id="Shadow">
<path id="&#60;Path&#62;" d="M94.4999 147.081C134.977 147.081 167.79 145.337 167.79 143.187C167.79 141.036 134.977 139.292 94.4999 139.292C54.0227 139.292 21.2095 141.036 21.2095 143.187C21.2095 145.337 54.0227 147.081 94.4999 147.081Z" fill="#F5F5F5"/>
</g>
<g id="Banknotes falling">
<path id="Vector_55" d="M64.9859 42.797C61.3684 40.9532 58.0571 36.9766 55.207 36.12C56.108 34.418 57.1638 32.7875 58.3633 31.2455C61.2134 33.7602 64.5247 38.1806 68.1422 37.9191C67.2388 39.6211 66.1832 41.2526 64.9859 42.797Z" fill="#407BFF"/>
<path id="Vector_56" opacity="0.5" d="M64.9859 42.797C61.3684 40.9532 58.0571 36.9766 55.207 36.12C56.108 34.418 57.1638 32.7875 58.3633 31.2455C61.2134 33.7602 64.5247 38.1806 68.1422 37.9191C67.2388 39.6211 66.1832 41.2526 64.9859 42.797Z" fill="white"/>
<path id="Vector_57" opacity="0.2" d="M67.2841 38.9718C66.9061 38.9305 66.7813 38.5521 67.0157 38.1737C64.0975 37.6026 61.391 34.3897 58.987 32.1846C58.9281 32.252 58.8538 32.3069 58.7694 32.3455C58.6849 32.3842 58.5922 32.4058 58.4977 32.4087C58.4032 32.4117 58.3092 32.3959 58.222 32.3626C58.1348 32.3292 58.0566 32.2791 57.9928 32.2156C57.2813 33.167 56.624 34.1509 56.0234 35.1637C56.1809 35.2855 56.2823 35.4568 56.3075 35.6435C56.3327 35.8302 56.2799 36.0187 56.1595 36.1716C58.5674 37.3412 61.2701 40.2996 64.192 42.0781C64.3326 41.9382 64.5199 41.8445 64.725 41.8116C64.93 41.7786 65.1413 41.8082 65.326 41.8958C66.0355 40.951 66.6916 39.9739 67.2916 38.9683L67.2841 38.9718ZM60.5027 38.184C59.7845 37.5751 59.6182 36.636 60.1021 36.0856C60.5859 35.5352 61.5422 35.6453 62.2604 36.2748C62.9786 36.9043 63.1828 37.8022 62.6989 38.3388C62.2151 38.8754 61.2361 38.7998 60.5027 38.184Z" fill="black"/>
<g id="Group_12" opacity="0.2">
<path id="Vector_58" d="M61.0509 37.84L60.9224 37.981L60.7787 37.8606C60.8241 37.8125 60.8657 37.7643 60.911 37.7196C60.7631 37.5869 60.6517 37.4242 60.5859 37.2449L60.7825 37.183C60.8328 37.3316 60.9194 37.4681 61.0358 37.582L61.2663 37.3274C61.1076 37.1279 60.945 36.9009 61.1076 36.7254C61.2701 36.55 61.4591 36.5982 61.7426 36.8149C61.788 36.7702 61.8296 36.722 61.8749 36.6738L62.0148 36.7977L61.8863 36.9387C62.0052 37.0474 62.1002 37.1759 62.166 37.3171L61.977 37.3859C61.9241 37.2717 61.8514 37.166 61.7615 37.0729L61.5272 37.3274C61.6859 37.527 61.856 37.754 61.6935 37.9294C61.5309 38.1049 61.3419 38.067 61.0509 37.84ZM61.4289 37.1761L61.633 36.9525C61.5007 36.8596 61.4062 36.8596 61.3571 36.9146C61.3079 36.9697 61.3306 37.0798 61.41 37.1898L61.4289 37.1761ZM61.4818 37.7471C61.5385 37.6852 61.4818 37.5923 61.4024 37.4788L61.1983 37.7024C61.3193 37.8125 61.41 37.8159 61.4629 37.7609L61.4818 37.7471Z" fill="black"/>
</g>
<path id="Vector_59" d="M96.012 57.3551C92.6856 58.9857 87.6506 59.1921 85.549 60.8123C84.4943 59.1831 83.5769 57.4835 82.8047 55.728C86.3541 55.04 91.7784 55.0847 93.2677 52.2674C94.3217 53.8981 95.2391 55.5988 96.012 57.3551Z" fill="#407BFF"/>
<path id="Vector_60" opacity="0.5" d="M96.012 57.3551C92.6856 58.9857 87.6506 59.1921 85.549 60.8123C84.4943 59.1831 83.5769 57.4835 82.8047 55.728C86.3541 55.04 91.7784 55.0847 93.2677 52.2674C94.3217 53.8981 95.2391 55.5988 96.012 57.3551Z" fill="white"/>
<path id="Vector_61" opacity="0.2" d="M93.7707 53.5161C93.5515 53.7775 93.1659 53.6503 92.9504 53.265C91.0604 55.0951 86.9932 55.2946 83.9163 55.8175C83.9496 55.8932 83.9643 55.9748 83.9592 56.0563C83.9542 56.1378 83.9295 56.2173 83.8869 56.2891C83.8444 56.361 83.785 56.4235 83.713 56.4721C83.641 56.5208 83.5581 56.5545 83.4702 56.5708C83.9238 57.5478 84.453 58.5729 85.1032 59.6668C85.398 59.5327 85.8252 59.7425 86.0482 60.1381C88.2103 59.0201 92.0622 58.683 95.0106 57.5375C94.9548 57.3652 94.9614 57.1812 95.0295 57.0127C95.0976 56.8442 95.2235 56.7001 95.3886 56.6018C94.9387 55.6283 94.4133 54.6066 93.7707 53.5058V53.5161ZM89.8698 58.0672C89.4722 58.1671 89.0484 58.1321 88.6771 57.9689C88.3058 57.8056 88.0123 57.5252 87.8512 57.1797C87.598 56.5123 88.1499 55.8725 89.0419 55.6971C89.934 55.5216 90.811 55.8759 91.0491 56.5364C91.2872 57.1969 90.7467 57.8849 89.8698 58.0672Z" fill="black"/>
<g id="Group_13" opacity="0.2">
<path id="Vector_62" d="M89.8431 57.4755C89.8657 57.534 89.8846 57.5925 89.9035 57.651L89.7297 57.6888C89.7297 57.6303 89.6881 57.5718 89.6692 57.5134C89.4805 57.5459 89.286 57.5365 89.1022 57.4858C89.1022 57.4239 89.1286 57.3654 89.1438 57.307C89.2931 57.3539 89.453 57.3657 89.6087 57.3414C89.5747 57.2382 89.5369 57.135 89.4991 57.0283C89.2496 57.0283 88.9737 57.0283 88.8981 56.8047C88.8414 56.6465 88.951 56.4779 89.2761 56.3885C89.2534 56.33 89.2345 56.2715 89.2118 56.213L89.3895 56.1786C89.3895 56.2371 89.4273 56.2956 89.4499 56.3541C89.6033 56.3249 89.7616 56.3249 89.9149 56.3541L89.8809 56.5295C89.7557 56.5103 89.628 56.5103 89.5029 56.5295C89.5407 56.6327 89.5785 56.7394 89.6125 56.846C89.8657 56.846 90.1417 56.846 90.2173 57.0593C90.2815 57.2106 90.1681 57.3826 89.8431 57.4755ZM89.4348 56.8391C89.4008 56.7462 89.3706 56.6534 89.3365 56.5605C89.1929 56.6086 89.1475 56.6774 89.1702 56.7462C89.1929 56.815 89.3025 56.8357 89.4348 56.8391ZM89.9565 57.1212C89.93 57.0455 89.8242 57.0283 89.6881 57.0283C89.7183 57.1212 89.7523 57.2141 89.7826 57.3035C89.9338 57.2554 89.964 57.19 89.964 57.1212H89.9565Z" fill="black"/>
</g>
<path id="Vector_63" d="M123.202 35.6797C119.278 36.8837 115.419 38.3732 112.497 40.6952C111.461 39.2986 110.395 37.8778 109.424 36.3883C112.694 34.1145 116.508 32.68 120.129 31.3728C121.165 32.7694 122.23 34.1902 123.202 35.6797Z" fill="#407BFF"/>
<path id="Vector_64" opacity="0.5" d="M123.202 35.6797C119.278 36.8837 115.419 38.3732 112.497 40.6952C111.461 39.2986 110.395 37.8778 109.424 36.3883C112.694 34.1145 116.508 32.68 120.129 31.3728C121.165 32.7694 122.23 34.1902 123.202 35.6797Z" fill="white"/>
<path id="Vector_65" opacity="0.2" d="M120.431 32.2638C120.23 32.331 120.011 32.3368 119.806 32.2803C119.602 32.2238 119.423 32.1081 119.297 31.9507C116.296 33.055 113.211 34.2762 110.459 36.0271C110.562 36.1966 110.594 36.3939 110.551 36.5833C110.507 36.7727 110.39 36.9415 110.221 37.0591C110.841 37.9707 111.487 38.8582 112.134 39.7354C112.207 39.678 112.294 39.6357 112.387 39.6114C112.48 39.5872 112.578 39.5815 112.674 39.5949C112.77 39.6083 112.862 39.6404 112.942 39.689C113.023 39.7376 113.092 39.8016 113.143 39.8765C115.691 38.0877 118.813 36.8286 121.988 35.7863C121.936 35.7121 121.904 35.6278 121.895 35.5402C121.885 35.4526 121.898 35.3642 121.933 35.2822C121.968 35.2001 122.024 35.1267 122.096 35.0679C122.168 35.009 122.254 34.9664 122.347 34.9435C121.728 34.0354 121.077 33.1478 120.435 32.2706L120.431 32.2638ZM116.742 36.7874C116.368 36.9685 115.934 37.0181 115.523 36.9267C115.111 36.8354 114.751 36.6094 114.511 36.292C114.407 36.1337 114.341 35.9571 114.317 35.7737C114.293 35.5904 114.312 35.4046 114.373 35.2284C114.433 35.0523 114.534 34.8899 114.669 34.7518C114.804 34.6138 114.969 34.5032 115.154 34.4275C115.542 34.2537 115.985 34.214 116.403 34.3159C116.82 34.4178 117.182 34.6543 117.422 34.9814C117.523 35.1376 117.586 35.312 117.607 35.4925C117.627 35.673 117.604 35.8554 117.539 36.027C117.475 36.1987 117.37 36.3555 117.232 36.4868C117.094 36.6181 116.927 36.7206 116.742 36.7874Z" fill="black"/>
<g id="Group_14" opacity="0.2">
<path id="Vector_66" d="M116.522 36.1682L116.64 36.3436L116.481 36.4124L116.364 36.2404C116.19 36.3139 115.998 36.3436 115.808 36.3264C115.808 36.261 115.808 36.1922 115.789 36.1269C115.946 36.1452 116.104 36.1262 116.25 36.0718C116.182 35.9652 116.11 35.862 116.039 35.7588C115.797 35.8138 115.532 35.862 115.388 35.6453C115.279 35.487 115.328 35.2806 115.611 35.1224L115.491 34.9435L115.649 34.8747L115.766 35.0467C115.909 34.9908 116.065 34.9649 116.22 34.971C116.22 35.033 116.239 35.0983 116.25 35.1637C116.122 35.1593 115.994 35.1768 115.872 35.2153L116.084 35.5318C116.326 35.4802 116.598 35.432 116.745 35.6487C116.859 35.807 116.802 36.0065 116.522 36.1682ZM115.914 35.5696L115.725 35.291C115.6 35.3701 115.581 35.4526 115.627 35.5214C115.672 35.5902 115.782 35.5937 115.914 35.5696ZM116.515 35.7691C116.462 35.6934 116.352 35.6969 116.22 35.721L116.405 35.9962C116.534 35.917 116.56 35.8379 116.515 35.776V35.7691Z" fill="black"/>
</g>
<path id="Vector_67" d="M54.1222 72.3535C51.2645 69.6428 46.6189 69.8973 43.7612 67.1935C44.6609 65.6983 45.5618 64.2019 46.4639 62.7043C49.3216 65.415 53.9672 65.1639 56.8249 67.8643C55.9253 69.3619 55.0244 70.8583 54.1222 72.3535Z" fill="#407BFF"/>
<path id="Vector_68" opacity="0.5" d="M54.1222 72.3535C51.2645 69.6428 46.6189 69.8973 43.7612 67.1935C44.6609 65.6983 45.5618 64.2019 46.4639 62.7043C49.3216 65.415 53.9672 65.1639 56.8249 67.8643C55.9253 69.3619 55.0244 70.8583 54.1222 72.3535Z" fill="white"/>
<path id="Vector_69" opacity="0.2" d="M56.0952 68.511C55.9362 68.377 55.8285 68.2002 55.7877 68.0065C55.7469 67.8128 55.7752 67.6124 55.8684 67.4343C53.2829 65.6111 49.7146 65.4219 47.129 63.5953C47.0885 63.6743 47.0274 63.7432 46.9511 63.7959C46.8747 63.8487 46.7854 63.8836 46.6908 63.8979C46.5963 63.9121 46.4993 63.9051 46.4084 63.8776C46.3174 63.85 46.2352 63.8027 46.1689 63.7397L44.4868 66.5399C44.6443 66.6741 44.7508 66.8505 44.7909 67.0434C44.831 67.2364 44.8026 67.4359 44.7098 67.6132C47.2954 69.4398 50.8637 69.629 53.4492 71.4557C53.4893 71.3764 53.5501 71.3072 53.6263 71.2541C53.7025 71.201 53.7917 71.1657 53.8863 71.1511C53.9809 71.1365 54.078 71.1432 54.1692 71.1705C54.2603 71.1978 54.3427 71.2449 54.4093 71.3077L56.0914 68.511H56.0952ZM49.518 68.683C49.3296 68.6277 49.1573 68.5344 49.0139 68.4102C48.8705 68.286 48.7597 68.134 48.6896 67.9655C48.6195 67.797 48.592 67.6163 48.6092 67.4368C48.6263 67.2573 48.6875 67.0836 48.7885 66.9286C49.0113 66.5892 49.3559 66.3299 49.7641 66.1946C50.1724 66.0593 50.6194 66.0561 51.03 66.1856C51.2185 66.2397 51.3911 66.3319 51.535 66.4553C51.6788 66.5787 51.7901 66.73 51.8607 66.8981C51.9312 67.0661 51.959 67.2465 51.9422 67.4257C51.9253 67.605 51.8642 67.7784 51.7633 67.9331C51.5415 68.2746 51.1968 68.5357 50.7876 68.6724C50.3784 68.8091 49.9299 68.8128 49.518 68.683Z" fill="black"/>
<g id="Group_15" opacity="0.2">
<path id="Vector_70" d="M50.0286 68.1498C49.9945 68.2118 49.9567 68.2737 49.9189 68.3356L49.7564 68.2806L49.866 68.0982C49.7008 68.0416 49.5602 67.9378 49.4653 67.8024L49.6543 67.6648C49.7307 67.7773 49.8427 67.866 49.9756 67.9194C50.0399 67.8093 50.1079 67.6992 50.176 67.5754C49.9832 67.4584 49.798 67.3208 49.9227 67.0903C49.991 66.994 50.094 66.9224 50.2141 66.8878C50.3342 66.8533 50.4637 66.858 50.5804 66.9011L50.6938 66.7119L50.8564 66.7669L50.743 66.9493C50.8782 66.9968 50.996 67.0778 51.0832 67.1832L50.9017 67.3208C50.8299 67.2399 50.7396 67.1742 50.6371 67.1281L50.4368 67.4721C50.6296 67.5891 50.8148 67.7267 50.6938 67.9572C50.6243 68.0542 50.5201 68.1263 50.3989 68.1614C50.2777 68.1965 50.1469 68.1924 50.0286 68.1498ZM50.2932 67.3896L50.4708 67.0937C50.3196 67.0662 50.2251 67.0937 50.1835 67.1797C50.1419 67.2657 50.1987 67.3208 50.2932 67.3896ZM50.433 67.8918C50.4822 67.8093 50.433 67.7439 50.3158 67.6751L50.1382 67.9675C50.2932 67.9985 50.3877 67.9606 50.433 67.8918Z" fill="black"/>
</g>
<path id="Vector_71" d="M147.62 58.5626C144.921 61.5278 140.272 59.9386 137.573 62.3087C136.586 60.6816 135.6 59.1164 134.613 57.6647C137.312 54.6994 141.962 56.2887 144.661 53.9186C145.647 55.5457 146.634 57.104 147.62 58.5626Z" fill="#407BFF"/>
<path id="Vector_72" opacity="0.5" d="M147.62 58.5626C144.921 61.5278 140.272 59.9386 137.573 62.3087C136.586 60.6816 135.6 59.1164 134.613 57.6647C137.312 54.6994 141.962 56.2887 144.661 53.9186C145.647 55.5457 146.634 57.104 147.62 58.5626Z" fill="white"/>
<path id="Vector_73" opacity="0.2" d="M145.008 55.0091C144.71 55.2533 144.252 55.1054 144.041 54.7304C141.565 56.1821 138.012 55.3944 135.539 57.2244C135.642 57.3962 135.682 57.5934 135.653 57.7871C135.624 57.9809 135.527 58.1611 135.377 58.3012C135.989 59.2403 136.605 60.2172 137.222 61.2217C137.52 60.9775 137.978 61.1254 138.189 61.4969C140.661 60.0452 144.215 60.833 146.69 59.0064C146.587 58.8355 146.546 58.6386 146.576 58.4451C146.605 58.2517 146.702 58.0721 146.853 57.9331C146.237 56.9974 145.621 56.017 145.008 55.0125V55.0091ZM141.829 59.4604C141.02 59.5602 140.011 59.027 139.561 58.253C139.112 57.479 139.38 56.7256 140.185 56.6224C140.99 56.5192 142.007 57.0593 142.453 57.8333C142.899 58.6073 142.638 59.3572 141.829 59.4604Z" fill="black"/>
<g id="Group_16" opacity="0.2">
<path id="Vector_74" d="M141.599 58.7758L141.72 58.9857L141.565 59.0063L141.44 58.7965C141.247 58.8111 141.052 58.7791 140.877 58.7036L140.854 58.5006C141 58.5666 141.161 58.5986 141.323 58.5935L141.108 58.2186C140.975 58.2224 140.844 58.1945 140.727 58.1378C140.611 58.081 140.512 57.9974 140.442 57.8952C140.41 57.8554 140.39 57.8084 140.384 57.7591C140.378 57.7098 140.386 57.66 140.409 57.6148C140.431 57.5695 140.466 57.5306 140.511 57.5019C140.555 57.4731 140.607 57.4557 140.661 57.4514L140.537 57.2382L140.695 57.2175L140.816 57.4274C140.973 57.4172 141.131 57.4384 141.278 57.4893C141.278 57.5581 141.297 57.6234 141.308 57.6888C141.187 57.6476 141.059 57.6277 140.93 57.6303L141.153 58.0087C141.285 58.0045 141.416 58.0319 141.532 58.088C141.649 58.1441 141.748 58.2271 141.818 58.3286C141.85 58.3688 141.87 58.4159 141.876 58.4653C141.882 58.5148 141.873 58.5647 141.851 58.6101C141.829 58.6555 141.794 58.6947 141.749 58.7238C141.705 58.7529 141.653 58.7709 141.599 58.7758ZM140.994 57.9915L140.798 57.6475C140.673 57.6888 140.654 57.7645 140.703 57.847C140.735 57.8911 140.778 57.9273 140.829 57.9525C140.879 57.9777 140.936 57.9911 140.994 57.9915ZM141.606 58.3768C141.572 58.3339 141.527 58.2989 141.475 58.2744C141.424 58.2499 141.366 58.2367 141.308 58.2358L141.501 58.5798C141.61 58.5316 141.633 58.4594 141.588 58.3768H141.606Z" fill="black"/>
</g>
</g>
<g id="Banknotes">
<path id="Vector_75" d="M131.166 81.7068C120.375 100.646 106.062 117.74 88.8601 132.234L62.4341 113.905C79.6476 99.4152 93.9715 82.3201 104.77 63.3785L131.166 81.7068Z" fill="#407BFF"/>
<path id="Vector_76" opacity="0.2" d="M131.166 81.7068C130.279 83.2686 129.364 84.8166 128.422 86.3508C117.989 103.456 104.635 118.944 88.8601 132.234L62.4341 113.905C79.6476 99.4152 93.9715 82.3201 104.77 63.3785L131.166 81.7068Z" fill="white"/>
<path id="Vector_77" opacity="0.2" d="M108.902 68.2737C108.65 68.7369 108.287 69.1426 107.839 69.4606C107.392 69.7785 106.871 70.0006 106.316 70.1104C105.761 70.2201 105.186 70.2146 104.634 70.0944C104.082 69.9741 103.566 69.7422 103.126 69.4158C93.7565 84.6722 82.0554 98.6415 68.3726 110.906C68.8379 111.203 69.2229 111.593 69.4988 112.045C69.7746 112.498 69.934 113.001 69.9649 113.518C69.9959 114.034 69.8975 114.551 69.6774 115.028C69.4572 115.505 69.1209 115.93 68.6939 116.272L85.1633 127.696C86.0892 126.929 87.2758 126.472 88.526 126.404C89.7762 126.335 91.0146 126.657 92.0354 127.318C105.719 115.055 117.421 101.085 126.789 85.828C124.804 84.452 124.196 81.7206 125.371 79.6979L125.39 79.667L108.917 68.2427L108.902 68.2737ZM105.878 104.576C102.767 108.281 96.7755 108.876 92.7196 106.062C88.6636 103.248 88.0588 98.0813 91.1735 94.3661C94.2883 90.6509 99.9318 89.8253 103.995 92.6461C108.059 95.4669 109.011 100.871 105.893 104.576H105.878Z" fill="black"/>
<g id="Group_17" opacity="0.2">
<path id="Vector_78" d="M103.05 101.48L104.143 102.237L103.53 102.966L102.438 102.206C101.648 103.038 100.616 103.657 99.7917 103.809L99.1491 102.732C100.016 102.519 100.797 102.083 101.398 101.477L99.4478 100.125C98.3591 100.93 97.1004 101.735 95.7471 100.792C94.753 100.104 94.4544 98.8552 95.475 97.3692L94.375 96.6055C94.5791 96.3647 94.7832 96.1204 94.9836 95.8762L96.0647 96.6261C96.6252 96.0093 97.3427 95.5263 98.155 95.2192L98.8392 96.2718C98.1895 96.5205 97.6038 96.8895 97.1193 97.3554L99.0849 98.7314C100.174 97.923 101.398 97.0699 102.751 98.009C103.742 98.6867 104.059 99.9595 103.05 101.48ZM98.2797 99.3093L96.5447 98.1053C96.1214 98.8105 96.2423 99.3196 96.6732 99.6155C97.1042 99.9113 97.6712 99.7084 98.2797 99.3093ZM101.909 99.2096C101.432 98.8656 100.884 99.1167 100.272 99.5536L101.995 100.751C102.438 100.008 102.321 99.502 101.901 99.2096H101.909Z" fill="black"/>
</g>
<path id="Vector_79" opacity="0.2" d="M128.433 86.344C117.998 103.452 104.64 118.942 88.86 132.234C88.86 132.234 77.6637 116.688 73.0181 113.799C73.0181 113.799 109.087 101.618 128.433 86.344Z" fill="black"/>
<path id="Vector_80" d="M156.401 107.008C138.822 121.124 118.69 132.364 96.8963 140.228L79.5083 114.456C101.301 106.592 121.432 95.3528 139.009 81.2356C144.81 89.8287 150.608 98.4196 156.401 107.008Z" fill="#407BFF"/>
<path id="Vector_81" opacity="0.3" d="M156.401 107.008C138.822 121.124 118.69 132.364 96.8963 140.228L89.3855 129.089C86.1095 124.216 82.8221 119.339 79.5234 114.459C101.316 106.596 121.448 95.3562 139.024 81.239C144.815 89.8299 150.608 98.4195 156.401 107.008Z" fill="white"/>
<path id="Vector_82" opacity="0.2" d="M140.952 87.1627C140.537 87.5158 140.038 87.7785 139.495 87.9309C138.952 88.0834 138.377 88.1217 137.816 88.0428C137.254 87.964 136.719 87.7702 136.251 87.4759C135.783 87.1816 135.395 86.7946 135.116 86.344C120.326 97.4942 103.873 106.679 86.248 113.623C86.5643 114.053 86.7692 114.543 86.8471 115.056C86.925 115.568 86.8739 116.09 86.6977 116.582C86.5215 117.074 86.2248 117.523 85.8299 117.896C85.4351 118.268 84.9525 118.554 84.4185 118.732L95.2557 134.783C96.4237 134.371 97.7112 134.336 98.9043 134.682C100.097 135.029 101.124 135.737 101.814 136.688C119.44 129.747 135.894 120.562 150.682 109.409C149.374 107.476 149.892 104.727 151.789 103.217L151.82 103.193L140.994 87.1386L140.952 87.1627ZM123.753 120.028C119.38 122.464 113.547 121.06 110.901 117.094C108.255 113.128 109.722 108.119 114.095 105.687C118.469 103.255 124.063 104.311 126.736 108.291C129.408 112.271 128.142 117.6 123.753 120.028Z" fill="black"/>
<g id="Group_18" opacity="0.2">
<path id="Vector_83" d="M122.332 116.2L123.05 117.266L122.188 117.744C121.954 117.4 121.716 117.056 121.477 116.692C120.411 117.204 119.209 117.445 118.366 117.314C118.31 116.908 118.253 116.502 118.193 116.097C119.085 116.182 119.985 116.031 120.786 115.663C120.36 115.03 119.934 114.397 119.508 113.764C118.17 114.156 116.681 114.49 115.789 113.169C115.135 112.199 115.35 110.937 116.892 109.887L116.17 108.814L117.028 108.332L117.739 109.389C118.506 108.998 119.366 108.783 120.245 108.762C120.321 109.165 120.393 109.567 120.468 109.966C119.763 109.988 119.07 110.141 118.431 110.414L119.724 112.333C121.062 111.938 122.54 111.545 123.428 112.863C124.082 113.833 123.87 115.123 122.332 116.2ZM118.733 112.615C118.353 112.051 117.975 111.487 117.599 110.923C116.923 111.442 116.843 111.955 117.119 112.374C117.395 112.794 118.015 112.791 118.733 112.615ZM122.154 113.716C121.84 113.248 121.236 113.293 120.498 113.482L121.632 115.164C122.328 114.631 122.43 114.122 122.154 113.716Z" fill="black"/>
</g>
<path id="Vector_84" opacity="0.2" d="M156.401 107.008C138.822 121.124 118.69 132.364 96.8962 140.228L89.3854 129.089L88.0737 111.831C88.0737 111.831 129.767 114.569 156.401 107.008Z" fill="black"/>
<path id="Vector_85" d="M161.444 140.41C138.624 145.303 115.047 146.564 91.7554 144.136C91.1103 134.075 90.4627 124.013 89.8125 113.95C113.109 116.383 136.692 115.122 159.516 110.224C160.153 120.288 160.796 130.35 161.444 140.41Z" fill="#407BFF"/>
<path id="Vector_86" opacity="0.4" d="M161.444 140.41C138.624 145.303 115.047 146.564 91.7554 144.136C91.1103 134.075 90.4627 124.013 89.8125 113.95C113.109 116.383 136.692 115.122 159.516 110.224C160.153 120.288 160.796 130.35 161.444 140.41Z" fill="white"/>
<path id="Vector_87" opacity="0.2" d="M158.125 116.272C157.575 116.4 157 116.413 156.443 116.311C155.887 116.209 155.363 115.994 154.91 115.683C154.457 115.371 154.087 114.971 153.828 114.511C153.568 114.051 153.426 113.545 153.411 113.028C134.589 116.503 115.32 117.528 96.1818 116.072C96.2371 116.588 96.1633 117.107 95.9659 117.592C95.7685 118.078 95.4526 118.516 95.042 118.874C94.6315 119.232 94.137 119.501 93.5959 119.659C93.0547 119.818 92.481 119.863 91.918 119.791C92.3237 126.063 92.7269 132.336 93.1276 138.608C94.371 138.746 95.525 139.267 96.3971 140.085C97.2693 140.903 97.807 141.969 97.9206 143.104C117.059 144.559 136.328 143.534 155.15 140.06C155.002 137.793 156.885 135.588 159.338 135.085H159.376L158.163 116.272H158.125ZM125.912 137.858C120.793 138.123 116.394 134.377 116.084 129.743C115.774 125.109 119.701 121.325 124.819 121.06C129.937 120.796 134.311 124.156 134.609 128.79C134.908 133.424 131.026 137.6 125.912 137.858Z" fill="black"/>
<g id="Group_19" opacity="0.2">
<path id="Vector_88" d="M126.63 133.871L126.709 135.116L125.704 135.171L125.624 133.936C124.537 133.964 123.466 133.689 122.555 133.149C122.717 132.767 122.876 132.385 123.035 132.003C123.778 132.46 124.649 132.714 125.545 132.736C125.499 131.993 125.452 131.251 125.401 130.51C124.021 130.28 122.532 129.936 122.434 128.388C122.362 127.252 123.209 126.234 125.11 125.98L125.031 124.724L126.036 124.669L126.116 125.904C126.995 125.885 127.865 126.066 128.648 126.43L128.217 127.586C127.585 127.301 126.896 127.137 126.191 127.105L126.339 129.354C127.718 129.578 129.227 129.867 129.329 131.418C129.416 132.536 128.561 133.586 126.63 133.871ZM125.318 129.162C125.273 128.503 125.23 127.844 125.19 127.184C124.324 127.349 123.984 127.765 124.014 128.257C124.044 128.749 124.607 129 125.333 129.162H125.318ZM127.764 131.604C127.73 131.061 127.174 130.837 126.426 130.689L126.55 132.66C127.454 132.485 127.809 132.096 127.764 131.604Z" fill="black"/>
</g>
</g>
<g id="Character">
<path id="Vector_89" d="M107.14 140.441C107.239 141.471 107.356 142.518 107.492 143.582H27.9985C30.4858 124.459 27.9985 116.169 27.9985 116.169C54.5644 114.349 107.492 116.169 107.492 116.169C107.492 116.169 105.893 125.381 106.97 138.574C107.021 139.186 107.077 139.808 107.14 140.441Z" fill="#407BFF"/>
<path id="Vector_90" opacity="0.2" d="M107.492 116.169C104.011 117.648 86.9816 117.858 77.1839 117.304C67.3861 116.75 54.5644 118.439 54.5644 118.439C47.1405 116.107 27.9985 116.169 27.9985 116.169C54.5644 114.349 107.492 116.169 107.492 116.169Z" fill="white"/>
<path id="Vector_91" opacity="0.2" d="M27.9985 143.582C30.4858 124.459 27.9985 116.169 27.9985 116.169C27.9985 116.169 43.7574 115.856 54.5644 118.439C54.5644 118.439 54.9424 121.356 54.5644 122.856C54.5644 122.856 67.5638 120.937 79.1344 121.191C79.1344 121.191 61.2247 123.066 54.5644 124.459C54.5644 124.459 43.8519 122.939 37.0743 122.856C37.0743 122.856 51.1662 124.525 54.5644 125.522C54.5644 125.522 58.5938 124.855 60.7031 124.855C60.7031 124.855 55.6568 125.691 54.5644 126.437V131.721C54.5644 131.721 43.3151 131.924 37.6716 131.191C40.3516 131.573 51.2796 133.104 54.5644 133.104C54.5644 133.104 66.9779 132.688 74.1863 133.104C74.1863 133.104 57.7622 133.964 54.5644 134.659H40.465L54.5644 135.736V136.805H60.6124L54.5644 137.755C54.5644 137.755 37.0743 136.743 32.0431 137.755C32.0431 137.755 52.6857 138.608 54.5417 139.272L54.5644 140.854C54.5644 140.854 77.7131 138.071 98.1856 140.466C98.1856 140.466 68.2895 139.385 54.5644 142.413C54.5644 142.413 97.5089 141.563 107.484 143.582H27.9985Z" fill="black"/>
<path id="Vector_92" d="M28.4636 118.439L26.3657 119.107C26.3657 119.107 39.0023 119.502 47.1557 120.637C47.1482 120.637 34.5872 118.604 28.4636 118.439Z" fill="#407BFF"/>
<path id="Vector_93" opacity="0.2" d="M56.4053 120.637L59.6032 121.191C59.6032 121.191 74.4926 119.719 92.0923 119.54C92.0923 119.54 66.6718 118.419 56.4053 120.637Z" fill="white"/>
<path id="Vector_94" opacity="0.2" d="M66.4941 123.75C66.4941 123.75 75.4225 121.535 83.2509 121.645C91.0792 121.755 105.98 120.637 105.98 120.637L106.566 121.645C106.566 121.645 94.8819 122.268 85.2391 122.196C78.9525 122.206 72.6794 122.727 66.4941 123.75Z" fill="white"/>
<path id="Vector_95" opacity="0.2" d="M57.6338 127.063C57.6338 127.063 68.2783 124.999 78.7149 125.188C89.1514 125.378 102.295 126.121 102.295 126.121C102.295 126.121 73.7706 126.121 66.4941 127.497L57.6338 127.063Z" fill="white"/>
<path id="Vector_96" d="M76.0464 124.064C76.0464 124.064 85.2129 123.376 93.1244 123.751C101.036 124.126 109.344 124.463 109.344 124.463L106.566 125.178C106.566 125.178 87.5187 123.441 76.0464 124.064Z" fill="#407BFF"/>
<path id="Vector_97" opacity="0.2" d="M76.0464 124.064C76.0464 124.064 85.2129 123.376 93.1244 123.751C101.036 124.126 109.344 124.463 109.344 124.463L106.566 125.178C106.566 125.178 87.5187 123.441 76.0464 124.064Z" fill="black"/>
<path id="Vector_98" opacity="0.2" d="M57.978 128.814C57.978 128.814 73.854 128.635 81.501 128.288C89.1479 127.94 99.403 129.87 99.403 129.87C99.403 129.87 86.7514 129.626 82.8353 130.19L57.978 128.814Z" fill="black"/>
<path id="Vector_99" opacity="0.2" d="M56.4053 131.002L66.4941 130.19L87.9872 131.002L66.2182 131.814L56.4053 131.002Z" fill="white"/>
<path id="Vector_100" opacity="0.2" d="M63.9502 135.312C63.9502 135.312 78.6204 134.067 84.3357 134.002C90.0511 133.936 105.432 133.001 105.432 133.001L103.723 135.065C103.723 135.065 74.8026 134.504 63.9502 135.312Z" fill="white"/>
<path id="Vector_101" d="M101.149 128.288L106.566 128.752L108.04 128.288C105.748 128.093 103.441 128.093 101.149 128.288Z" fill="#407BFF"/>
<path id="Vector_102" d="M107.25 117.882L109.344 118.188L107.095 119.258L93.8652 119.003C93.8652 119.003 103.784 118.883 107.25 117.882Z" fill="#407BFF"/>
<path id="Vector_103" opacity="0.2" d="M101.149 128.288L106.566 128.752L108.04 128.288C105.748 128.093 103.441 128.093 101.149 128.288Z" fill="white"/>
<path id="Vector_104" opacity="0.2" d="M107.25 117.882L109.344 118.188L107.095 119.258L93.8652 119.003C93.8652 119.003 103.784 118.883 107.25 117.882Z" fill="black"/>
<path id="Vector_105" opacity="0.2" d="M107.141 140.441C103.587 140.232 78.6885 137.383 78.6885 137.383C80.3479 137.208 102.083 138.377 106.97 138.574C107.021 139.186 107.078 139.809 107.141 140.441Z" fill="black"/>
<path id="Vector_106" d="M69.6504 136.995C69.6504 136.995 92.9314 136.94 99.5917 137.376C106.252 137.813 106.849 136.995 106.849 136.995L110.168 138.45C110.168 138.45 110.338 139.894 101.603 138.887C92.8671 137.879 69.6504 136.995 69.6504 136.995Z" fill="#407BFF"/>
<path id="Vector_107" d="M50.6297 126.341C50.6297 126.341 36.9952 124.373 29.0459 124.875C30.2407 125.123 31.3536 125.625 32.2929 126.341H50.6297Z" fill="#407BFF"/>
<path id="Vector_108" d="M29.0304 131.721C29.3404 131.69 39.2364 132.877 43.0164 133.001L27.6318 133.565L29.0304 131.721Z" fill="#407BFF"/>
<path id="Vector_109" d="M28.4712 139.502L43.4173 139.984L26.3657 141.133L28.4712 139.502Z" fill="#407BFF"/>
<path id="Vector_110" d="M55.7023 115.24C55.7023 115.24 76.9308 118.542 89.2422 105.323L112.436 110.741C112.436 110.741 108.169 118.797 76.1143 117.727C44.0599 116.657 55.7023 115.24 55.7023 115.24Z" fill="#407BFF"/>
<path id="Vector_111" opacity="0.5" d="M55.7023 115.24C55.7023 115.24 76.9308 118.542 89.2422 105.323L112.436 110.741C112.436 110.741 108.169 118.797 76.1143 117.727C44.0599 116.657 55.7023 115.24 55.7023 115.24Z" fill="white"/>
<path id="Vector_112" opacity="0.2" d="M67.8247 115.952C67.8247 115.952 80.8014 115.329 88.1384 107.775C88.8118 107.965 89.5323 107.966 90.2064 107.778C90.8805 107.591 91.477 107.223 91.9184 106.723L108.849 110.806C108.849 110.806 107.027 111.387 107.666 113.307C107.651 113.307 85.4282 121.501 67.8247 115.952Z" fill="black"/>
<g id="&#60;Group&#62;">
<path id="Vector_113" d="M87.1934 77.6374L87.5903 75.7213C87.5903 75.7213 86.77 75.0126 86.8645 74.3453C86.959 73.6779 90.6105 72.6253 91.2569 72.5668C91.9033 72.5083 91.6576 74.9163 91.461 75.3532C91.2644 75.7901 89.072 76.3164 89.072 76.3164L88.7961 78.3357L87.1934 77.6374Z" fill="#EBB376"/>
<path id="Vector_114" d="M45.0957 87.0561L43.6479 85.6182C43.6479 85.6182 43.9314 84.624 43.4703 84.1149C43.0091 83.6058 39.2858 84.4417 38.7113 84.7134C38.1367 84.9852 39.7319 86.9013 40.1552 87.1765C40.5786 87.4517 42.7407 86.8325 42.7407 86.8325L44.1469 88.4183L45.0957 87.0561Z" fill="#EBB376"/>
<path id="Vector_115" d="M73.8882 83.967C77.9592 83.7606 81.6485 84.5346 83.5423 83.967C85.4361 83.3994 87.2732 76.2304 87.2732 76.2304L89.2652 76.8427C89.2652 76.8427 88.5092 84.3041 85.2357 86.3027C81.9623 88.3014 74.3758 88.2842 74.3758 88.2842L73.8882 83.967Z" fill="#407BFF"/>
<path id="Vector_116" opacity="0.7" d="M89.2652 76.8427C89.2652 76.8427 88.5092 84.3041 85.2357 86.3027C83.3457 87.4379 80.1063 87.923 77.6455 88.1328C75.782 88.2876 74.3758 88.2842 74.3758 88.2842L74.149 86.2683L73.8882 83.967C77.9592 83.7606 81.6485 84.5346 83.5423 83.967C85.4361 83.3994 87.2732 76.2304 87.2732 76.2304L89.2652 76.8427Z" fill="white"/>
<path id="Vector_117" opacity="0.2" d="M77.6454 88.1328C75.7819 88.2876 74.3757 88.2842 74.3757 88.2842L74.1489 86.2683C75.4161 86.7165 76.5964 87.3459 77.6454 88.1328Z" fill="black"/>
<path id="Vector_118" d="M99.9131 141.917L102.548 141.26L102.075 135.405L99.4443 136.066L99.9131 141.917Z" fill="#B97964"/>
<path id="Vector_119" d="M102.71 140.94L99.6485 141.133C99.597 141.135 99.5484 141.155 99.5131 141.189C99.4777 141.223 99.4585 141.268 99.4595 141.315L99.4784 143.527C99.4872 143.643 99.5456 143.751 99.6412 143.827C99.7367 143.904 99.8616 143.943 99.9887 143.936C101.055 143.854 101.561 143.764 102.907 143.672C104.108 143.634 105.304 143.519 106.487 143.328C107.621 143.09 107.318 142.093 106.819 142.103C105.53 142.04 104.281 141.673 103.194 141.04C103.049 140.96 102.879 140.925 102.71 140.94Z" fill="#263238"/>
<path id="Vector_120" d="M103.709 141.301C103.463 141.312 103.217 141.298 102.975 141.26C102.963 141.259 102.951 141.254 102.942 141.247C102.933 141.239 102.926 141.23 102.922 141.219C102.921 141.208 102.921 141.197 102.925 141.186C102.928 141.175 102.933 141.165 102.941 141.157C103.024 141.095 103.761 140.569 104.105 140.665C104.144 140.676 104.179 140.696 104.207 140.724C104.235 140.751 104.255 140.784 104.264 140.82C104.291 140.873 104.3 140.932 104.29 140.99C104.281 141.048 104.254 141.102 104.211 141.147C104.07 141.252 103.891 141.307 103.709 141.301ZM104.068 140.785C103.886 140.734 103.448 140.971 103.145 141.174C103.641 141.229 103.996 141.195 104.117 141.071C104.141 141.041 104.157 141.006 104.162 140.97C104.167 140.933 104.162 140.896 104.147 140.861C104.141 140.844 104.131 140.828 104.117 140.815C104.103 140.802 104.086 140.792 104.068 140.785Z" fill="#263238"/>
<path id="Vector_121" d="M102.986 141.26C102.982 141.262 102.978 141.263 102.973 141.263C102.969 141.263 102.964 141.262 102.96 141.26C102.951 141.256 102.943 141.25 102.936 141.243C102.93 141.236 102.925 141.228 102.922 141.219C102.922 141.195 102.805 140.479 103.058 140.218C103.092 140.185 103.133 140.16 103.179 140.143C103.224 140.126 103.274 140.119 103.323 140.122C103.377 140.12 103.43 140.135 103.475 140.163C103.519 140.192 103.552 140.233 103.568 140.28C103.648 140.548 103.281 141.092 103.024 141.253C103.019 141.257 103.013 141.259 103.006 141.261C103 141.262 102.993 141.262 102.986 141.26ZM103.289 140.249C103.263 140.25 103.238 140.256 103.215 140.267C103.192 140.277 103.172 140.292 103.156 140.311C103.024 140.557 102.982 140.836 103.039 141.105C103.275 140.899 103.419 140.621 103.444 140.324C103.444 140.29 103.41 140.252 103.319 140.249H103.289Z" fill="#263238"/>
<path id="Vector_122" opacity="0.2" d="M99.4443 136.066L102.079 135.409L102.347 138.756L99.6976 139.292L99.4443 136.066Z" fill="black"/>
<path id="Vector_123" d="M96.4659 141.831L93.9749 142.867L93.3437 140.431L92.4932 137.156L94.9728 136.121L95.8271 139.392L96.4659 141.831Z" fill="#B97964"/>
<path id="Vector_124" opacity="0.2" d="M95.8271 139.392L93.3437 140.431L92.4932 137.156L94.9728 136.121L95.8271 139.392Z" fill="black"/>
<path id="Vector_125" d="M96.5679 141.494L93.5817 142.131C93.5317 142.139 93.4873 142.165 93.4583 142.203C93.4293 142.241 93.4179 142.288 93.4267 142.333L93.835 144.518C93.8472 144.575 93.8716 144.629 93.907 144.677C93.9424 144.725 93.988 144.767 94.0412 144.799C94.0943 144.831 94.1539 144.853 94.2165 144.864C94.2791 144.875 94.3434 144.874 94.4058 144.862C95.4453 144.625 95.9178 144.463 97.2408 144.174C98.4206 143.97 99.5828 143.69 100.718 143.335C101.781 142.939 101.323 141.996 100.836 142.079C99.6789 142.268 97.9476 141.924 97.0556 141.549C96.9043 141.482 96.7327 141.463 96.5679 141.494Z" fill="#263238"/>
<path id="Vector_126" d="M97.6188 141.707C97.3775 141.752 97.1316 141.773 96.8855 141.769C96.873 141.771 96.8604 141.769 96.8494 141.763C96.8385 141.758 96.8299 141.749 96.825 141.738C96.8194 141.729 96.8164 141.718 96.8164 141.707C96.8164 141.697 96.8194 141.686 96.825 141.676C96.8968 141.604 97.5281 140.988 97.8872 141.019C97.927 141.026 97.9645 141.041 97.9962 141.064C98.0279 141.086 98.0528 141.116 98.0686 141.15C98.106 141.201 98.1259 141.261 98.1259 141.322C98.1259 141.383 98.106 141.443 98.0686 141.494C97.9501 141.61 97.7912 141.685 97.6188 141.707ZM97.8834 141.147C97.6906 141.119 97.3013 141.418 97.0367 141.663C97.5356 141.645 97.8834 141.559 97.9779 141.422C97.9992 141.39 98.0105 141.353 98.0105 141.315C98.0105 141.278 97.9992 141.241 97.9779 141.209C97.9711 141.192 97.9593 141.177 97.944 141.166C97.9286 141.156 97.9103 141.149 97.8909 141.147H97.8834Z" fill="#263238"/>
<path id="Vector_127" d="M96.8969 141.769C96.8934 141.771 96.8895 141.772 96.8856 141.772C96.8817 141.772 96.8778 141.771 96.8743 141.769C96.8641 141.766 96.8547 141.762 96.8469 141.755C96.8391 141.748 96.8329 141.74 96.8289 141.731C96.8289 141.711 96.5794 141.016 96.7873 140.724C96.8143 140.686 96.85 140.655 96.8918 140.632C96.9336 140.609 96.9806 140.594 97.0292 140.589C97.0833 140.579 97.1395 140.586 97.1889 140.608C97.2383 140.631 97.2779 140.668 97.3014 140.713C97.4261 140.964 97.1615 141.556 96.9234 141.745C96.9221 141.751 96.9188 141.757 96.9141 141.761C96.9094 141.765 96.9035 141.768 96.8969 141.769ZM97.0179 140.737C96.9681 140.749 96.9249 140.777 96.8969 140.816C96.8105 141.08 96.8184 141.362 96.9196 141.621C97.1168 141.384 97.2122 141.089 97.188 140.792C97.188 140.758 97.1389 140.724 97.0481 140.734L97.0179 140.737Z" fill="#263238"/>
<path id="Vector_128" d="M78.0083 108.584L77.2032 100.493L62.3591 100.809C62.3591 100.809 60.6014 112.082 61.879 114.153C64.147 117.851 79.1234 115.753 82.6237 116.066C84.0525 116.754 91.6957 139.826 91.6957 139.826L95.9784 138.254C95.9784 138.254 91.3744 118.787 90.3084 115.12C88.8682 110.022 82.9261 110.111 78.0083 108.584Z" fill="#263238"/>
<path id="Vector_129" d="M102.608 137.855L98.8282 138.171C98.8282 138.171 94.1977 116.709 93.8386 116.616C93.196 116.447 91.3174 116.255 90.3081 116.014C83.3 114.356 66.0405 111.305 66.0405 111.305L72.406 105.725C72.406 105.725 101.263 108.876 101.89 115.04C102.211 117.992 102.608 137.855 102.608 137.855Z" fill="#263238"/>
<path id="Vector_130" opacity="0.2" d="M92.822 116.633C92.1756 116.465 91.31 116.258 90.3083 116.017C90.588 116.152 89.7791 112.811 88.9702 111.948C87.3637 110.228 80.915 109.292 78.6054 108.955C76.6701 108.673 70.1836 108.154 70.1836 108.154C70.1836 108.154 81.637 107.252 90.2667 109.409C94.5343 110.476 93.7746 114.266 92.822 116.633Z" fill="black"/>
<path id="Vector_131" d="M60.3784 85.9312C60.3784 85.9312 65.8556 83.2858 73.8881 83.967C73.8881 83.967 76.674 90.4135 77.2032 100.479L62.2684 101.422C62.2684 101.422 62.5368 92.794 60.3784 85.9312Z" fill="#407BFF"/>
<path id="Vector_132" opacity="0.7" d="M62.2684 101.435C62.3067 99.0863 62.2108 96.737 61.9811 94.397C61.8488 93.021 61.6598 91.5728 61.3877 90.097C61.1376 88.6923 60.8006 87.3014 60.3784 85.9312C60.3784 85.9312 65.8556 83.2858 73.8881 83.967C73.8881 83.967 76.674 90.4135 77.2032 100.479L62.2684 101.435Z" fill="white"/>
<path id="Vector_133" opacity="0.2" d="M61.9924 94.397C61.8601 93.021 61.6711 91.5728 61.3989 90.097C61.6641 89.8517 61.9837 89.6606 62.3364 89.5363L62.3553 89.385C62.3439 89.5501 63.1264 92.0922 61.9924 94.397Z" fill="black"/>
<path id="Vector_134" d="M64.5176 84.9955C65.8859 86.1273 69.235 85.7076 69.235 85.7076C69.235 85.7076 71.3254 85.1882 70.8869 84.593C69.6546 84.4073 69.0611 83.8844 68.8117 83.217C68.6793 82.8007 68.6369 82.3649 68.6869 81.9339C68.6869 81.7 68.7474 81.4592 68.7928 81.2218L64.6385 78.432C65.1942 80.2724 65.8595 83.6608 64.5176 84.9955Z" fill="#EBB376"/>
<path id="Vector_135" opacity="0.2" d="M65.606 80.2036C65.7723 82.4637 67.8135 83.0898 68.8114 83.217C68.679 82.8007 68.6367 82.3649 68.6867 81.9339L65.606 80.2036Z" fill="black"/>
<path id="Vector_136" d="M68.2332 70.6782C69.7716 71.0566 71.0531 74.2868 69.9002 76.423C68.7473 78.5593 65.2734 72.584 65.2734 72.584C65.2734 72.584 67.239 70.4374 68.2332 70.6782Z" fill="#263238"/>
<path id="Vector_137" d="M71.4422 78.088C71.4497 78.2186 71.4497 78.3495 71.4422 78.4802C71.4157 79.4124 71.0024 80.301 70.2855 80.9673C69.6447 81.5747 68.7781 81.9426 67.8549 81.9993C67.1982 82.0289 66.545 81.8957 65.9649 81.614C64.1279 80.7643 63.6327 79.292 62.5629 76.8634C62.2965 76.2982 62.195 75.6801 62.2682 75.0687C62.3414 74.4574 62.5868 73.8737 62.9807 73.374C63.3746 72.8744 63.9037 72.4758 64.5166 72.2168C65.1294 71.9579 65.8054 71.8474 66.479 71.896C69.503 72.099 71.2078 75.68 71.4422 78.088Z" fill="#EBB376"/>
<path id="Vector_138" d="M66.9515 76.2958C67.0082 76.4987 67.1972 76.6398 67.3295 76.5813C67.4618 76.5228 67.5337 76.337 67.4618 76.1375C67.39 75.938 67.2086 75.7935 67.0838 75.852C66.9591 75.9105 66.8797 76.0894 66.9515 76.2958Z" fill="#263238"/>
<path id="Vector_139" d="M69.4578 75.5458C69.5145 75.7488 69.7073 75.8726 69.8358 75.8314C69.9643 75.7901 70.0399 75.5871 69.9681 75.3842C69.8963 75.1812 69.7186 75.0574 69.5901 75.0986C69.4616 75.1399 69.3898 75.3532 69.4578 75.5458Z" fill="#263238"/>
<path id="Vector_140" d="M68.6978 75.883C69.1852 76.4207 69.7511 76.8952 70.3799 77.2934C70.2633 77.4383 70.1131 77.558 69.94 77.6442C69.7669 77.7304 69.5751 77.7809 69.3781 77.7922L68.6978 75.883Z" fill="#D58745"/>
<path id="Vector_141" d="M70.0361 74.304C70.0178 74.32 69.9956 74.3318 69.9713 74.3384C69.9469 74.345 69.9212 74.3462 69.8963 74.3418C69.7308 74.3007 69.5571 74.2954 69.389 74.3265C69.221 74.3576 69.0633 74.4241 68.9286 74.5207C68.9025 74.5435 68.8676 74.556 68.8314 74.5553C68.7953 74.5547 68.7609 74.541 68.7358 74.5173C68.7108 74.4936 68.6971 74.4618 68.6978 74.4288C68.6985 74.3959 68.7135 74.3647 68.7396 74.3418C68.9075 74.2164 69.1058 74.1291 69.3181 74.0872C69.5304 74.0454 69.7506 74.0501 69.9605 74.101C69.9782 74.1043 69.995 74.1107 70.01 74.12C70.0249 74.1292 70.0376 74.1411 70.0475 74.1548C70.0573 74.1686 70.0641 74.184 70.0673 74.2002C70.0706 74.2163 70.0702 74.2329 70.0664 74.249C70.0586 74.2683 70.0484 74.2867 70.0361 74.304Z" fill="#263238"/>
<path id="Vector_142" d="M66.1237 75.5321C66.0981 75.5408 66.0699 75.5408 66.0443 75.5321C66.0133 75.5156 65.9908 75.4886 65.9816 75.457C65.9724 75.4254 65.9773 75.3918 65.9952 75.3635C66.1054 75.1922 66.2589 75.0474 66.443 74.9409C66.6271 74.8344 66.8364 74.7694 67.0536 74.7512C67.0714 74.7507 67.0892 74.7535 67.1059 74.7593C67.1226 74.7651 67.1379 74.7738 67.1509 74.785C67.1639 74.7962 67.1743 74.8096 67.1816 74.8245C67.1889 74.8393 67.1929 74.8553 67.1934 74.8716C67.1935 74.9042 67.1798 74.9356 67.1552 74.9592C67.1306 74.9829 67.0969 74.9971 67.0611 74.9989C66.89 75.0177 66.7261 75.0725 66.5824 75.1591C66.4386 75.2457 66.3191 75.3617 66.2333 75.4977C66.2187 75.51 66.2014 75.5195 66.1825 75.5254C66.1636 75.5313 66.1436 75.5336 66.1237 75.5321Z" fill="#263238"/>
<path id="Vector_143" d="M63.4477 73.1482L64.0411 74.1802C63.8804 74.3384 63.7911 74.546 63.7911 74.7615C63.7911 74.977 63.8804 75.1846 64.0411 75.3429C64.7971 76.1134 64.8274 77.7096 64.2982 78.5352C64.2982 78.5352 64.1129 78.1534 63.7879 78.3701C63.4628 78.5868 64.4229 80.5923 65.538 81.3182C65.538 81.3182 64.0978 80.8125 62.5934 78.8826C61.2023 77.1007 60.4388 75.4736 60.5635 74.5517L63.4477 73.1482Z" fill="#263238"/>
<path id="Vector_144" d="M62.1132 79.2266C62.6163 79.6975 63.3043 79.9672 64.0259 79.9766C64.986 79.9766 65.2128 79.1475 64.7365 78.4423C64.3094 77.8197 63.2926 77.0457 62.4345 77.3862C61.5765 77.7268 61.5009 78.6418 62.1132 79.2266Z" fill="#EBB376"/>
<path id="Vector_145" d="M69.6733 78.6556C69.4992 79.0022 69.3527 79.3597 69.2349 79.7254L69.0156 79.7014C68.0253 79.581 67.6057 79.2266 67.4469 78.8689C67.3732 78.6937 67.346 78.5051 67.3675 78.3185C67.3752 78.2113 67.4007 78.1057 67.4431 78.0054C68.0179 78.3287 68.6626 78.5352 69.3331 78.6109C69.5524 78.6453 69.6733 78.6556 69.6733 78.6556Z" fill="#263238"/>
<path id="Vector_146" d="M69.3366 78.6109L69.1967 78.9239C68.263 78.807 67.6204 78.6109 67.3672 78.3185C67.3749 78.2113 67.4003 78.1057 67.4428 78.0054C68.0187 78.3291 68.6647 78.5357 69.3366 78.6109Z" fill="white"/>
<path id="Vector_147" d="M69.0155 79.7014C68.0251 79.581 67.6055 79.2266 67.4468 78.8689C67.8238 78.926 68.1871 79.0424 68.5203 79.2129C68.7369 79.3252 68.9099 79.4959 69.0155 79.7014Z" fill="#DE5753"/>
<path id="Vector_148" d="M65.9765 73.327C65.9765 73.327 65.7119 71.6827 66.8534 72.0026C67.995 72.3226 68.0744 71.6965 67.7342 70.4271C67.394 69.1578 64.1205 68.7071 62.2683 70.7883C60.4161 72.8695 59.7697 74.6136 60.6656 75.5355C61.5614 76.4574 64.9748 73.7364 64.9748 73.7364C65.0678 73.2716 65.2845 72.8346 65.606 72.4636C65.627 72.7796 65.7566 73.0817 65.9765 73.327Z" fill="#263238"/>
<path id="Vector_149" d="M67.7417 85.5769L69.5523 87.032C69.5523 87.032 70.5465 93.1552 72.9883 95.8315H74.5003L74.799 94.8821C72.5275 92.5742 70.8968 89.8044 70.0437 86.805V84.8545L67.7417 85.5769Z" fill="#263238"/>
<path id="Vector_150" d="M64.9783 83.6711L68.6979 84.9405L69.0154 83.217L70.947 83.8534L71.4421 86.031L68.8113 85.4393L67.5072 87.0286L63.7158 84.796L64.9783 83.6711Z" fill="#407BFF"/>
<path id="Vector_151" opacity="0.5" d="M64.9783 83.6711L68.6979 84.9405L69.0154 83.217L70.947 83.8534L71.4421 86.031L68.8113 85.4393L67.5072 87.0286L63.7158 84.796L64.9783 83.6711Z" fill="white"/>
<path id="Vector_152" d="M62.0566 101.208L77.377 99.8838L77.411 101.576L62.0642 102.718L62.0566 101.208Z" fill="black"/>
<path id="Vector_153" d="M74.1337 100.231C74.0645 100.175 73.983 100.132 73.8944 100.106C73.8058 100.08 73.7122 100.071 73.6196 100.08L72.2626 100.207C72.0949 100.223 71.9397 100.295 71.8277 100.41C71.7157 100.524 71.655 100.673 71.6578 100.826V101.618C71.6618 101.78 71.7364 101.935 71.8653 102.048C71.9942 102.161 72.1669 102.222 72.3458 102.22H72.4025L73.7595 102.089C73.9269 102.073 74.0817 102.001 74.193 101.886C74.3044 101.771 74.3642 101.623 74.3605 101.47V100.682C74.36 100.596 74.3395 100.512 74.3004 100.434C74.2613 100.357 74.2045 100.287 74.1337 100.231ZM73.7368 101.772L72.3836 101.903C72.3372 101.909 72.29 101.906 72.245 101.894C72.2 101.882 72.1584 101.862 72.1227 101.834C72.087 101.806 72.0581 101.772 72.0379 101.734C72.0177 101.695 72.0067 101.653 72.0056 101.611V100.823C72.0042 100.748 72.0337 100.675 72.0883 100.619C72.1429 100.563 72.2186 100.528 72.3004 100.52L73.6536 100.393H73.6839C73.7698 100.393 73.8523 100.424 73.9138 100.478C73.9753 100.533 74.0108 100.607 74.0127 100.685V100.792H73.9598L73.5818 100.823C73.5515 100.825 73.5221 100.833 73.4952 100.846C73.4682 100.859 73.4444 100.877 73.4249 100.898C73.4054 100.919 73.3907 100.944 73.3816 100.97C73.3726 100.996 73.3693 101.024 73.372 101.052C73.3748 101.079 73.3834 101.106 73.3975 101.131C73.4117 101.155 73.4309 101.177 73.4543 101.195C73.4776 101.212 73.5046 101.226 73.5336 101.234C73.5626 101.242 73.5931 101.245 73.6234 101.243L74.0014 101.208H74.0203V101.48C74.02 101.552 73.9911 101.621 73.939 101.675C73.8868 101.729 73.815 101.763 73.7368 101.772Z" fill="white"/>
<path id="Vector_154" d="M60.3784 85.9312C57.8232 87.3072 54.1339 91.8377 52.8373 91.7448C51.5408 91.6519 44.5478 86 44.5478 86L42.9526 87.5721C42.9526 87.5721 49.4127 94.5931 52.4215 95.1229C55.4304 95.6526 62.0568 90.5752 62.0568 90.5752C62.4315 89.7002 62.4315 88.7291 62.0568 87.8542C61.7169 87.0771 61.1332 86.4083 60.3784 85.9312Z" fill="#407BFF"/>
<path id="Vector_155" opacity="0.7" d="M60.3784 85.9312C57.8232 87.3072 54.1339 91.8377 52.8373 91.7448C51.5408 91.6519 44.5478 86 44.5478 86L42.9526 87.5721C42.9526 87.5721 49.4127 94.5931 52.4215 95.1229C55.4304 95.6526 62.0568 90.5752 62.0568 90.5752C62.4315 89.7002 62.4315 88.7291 62.0568 87.8542C61.7169 87.0771 61.1332 86.4083 60.3784 85.9312Z" fill="white"/>
</g>
<path id="Vector_156" d="M83.7688 117.909C83.7688 117.909 33.0374 118.229 29.8887 111.745L52.4817 110.252C56.9655 111.964 61.5546 113.437 66.2258 114.666C71.4422 116.052 77.6263 117.366 83.7688 117.909Z" fill="#407BFF"/>
<path id="Vector_157" opacity="0.2" d="M83.7688 117.909C83.7688 117.909 82.1774 117.909 79.5314 117.909C68.679 117.221 56.0085 112.316 56.0085 112.316C51.4347 113.231 48.2897 111.59 48.2897 111.59L35.9593 112.233C36.0257 112.51 36.0228 112.796 35.9508 113.071C35.8789 113.346 35.7396 113.603 35.5435 113.823C41.9355 115.457 48.8265 116.451 54.4435 117.053C42.5781 116.244 31.3175 114.703 29.8735 111.755L52.4666 110.262C52.4666 110.262 68.2481 116.533 83.7688 117.909Z" fill="white"/>
<path id="Vector_158" opacity="0.2" d="M83.7688 117.909C83.7688 117.909 33.0374 118.229 29.8887 111.745C29.8887 111.745 47.031 118.484 66.2258 114.666C71.4422 116.052 77.6263 117.366 83.7688 117.909Z" fill="black"/>
</g>
</g>
</svg>
